<svg width="41" height="25" viewBox="0 0 41 25" fill="none" xmlns="http://www.w3.org/2000/svg">
<path d="M1.05786 1.18604C1.05786 0.909893 1.28172 0.686035 1.55786 0.686035H39.7589C40.035 0.686035 40.2589 0.909892 40.2589 1.18604V23.4651C40.2589 23.7412 40.035 23.9651 39.7589 23.9651H1.55786C1.28172 23.9651 1.05786 23.7412 1.05786 23.4651V1.18604Z" fill="white" stroke="#ADADAD"/>
<path fill-rule="evenodd" clip-rule="evenodd" d="M26.7538 17.7925H26.6516V17.9338C26.8516 17.9281 27.0455 17.923 27.2396 17.923C27.3385 17.923 27.4359 17.9258 27.5317 17.9285L27.6213 17.931C27.6835 17.9326 27.7449 17.9338 27.8057 17.9338V17.7925H27.7144C27.5635 17.7925 27.4447 17.7925 27.4447 17.6129V13.8611C27.4447 13.8175 27.434 13.7845 27.401 13.7845C27.3933 13.7845 27.379 13.791 27.3597 13.8014L27.3501 13.8066L27.3267 13.8199L27.3245 13.821L27.283 13.8443C27.1694 13.91 26.9426 14.0075 26.7269 14.078V14.165L26.7478 14.171C26.8147 14.1904 26.8674 14.2057 26.9076 14.2323C26.9392 14.2532 26.963 14.281 26.98 14.3233C26.9889 14.3457 26.996 14.3722 27.0012 14.4039C27.0033 14.4163 27.005 14.4294 27.0065 14.4434L27.0087 14.4681L27.0103 14.4896C27.0121 14.5193 27.0129 14.5523 27.0129 14.5889V17.6129C27.0129 17.7925 26.9053 17.7925 26.7538 17.7925ZM26.4575 15.1257H26.323C26.2203 14.491 25.7725 14.2354 25.1687 14.2354C24.5475 14.2354 23.6469 14.6533 23.6469 15.9566C23.6469 17.054 24.4241 17.8415 25.2546 17.8415C25.7883 17.8415 26.2317 17.472 26.3394 16.9015L26.4635 16.9339L26.3394 17.7271C26.1128 17.8684 25.5029 18.0153 25.1465 18.0153C23.8845 18.0153 23.0862 17.1951 23.0862 15.9733C23.0862 14.8598 24.0735 14.0613 25.1309 14.0613C25.5677 14.0613 25.9884 14.2029 26.4039 14.3496L26.4575 15.1257ZM12.1973 14.4948C12.1674 14.4508 12.1495 14.3987 12.1495 14.3452C12.1495 14.2875 12.1729 14.2317 12.2101 14.1866C12.2166 14.1788 12.2235 14.1712 12.2308 14.164C12.238 14.1569 12.2456 14.1501 12.2535 14.1437C12.2996 14.1069 12.3562 14.084 12.4139 14.084C12.554 14.084 12.6783 14.1984 12.6783 14.3452C12.6783 14.492 12.5593 14.6166 12.4139 14.6166C12.3652 14.6166 12.3186 14.601 12.2784 14.5748C12.2466 14.554 12.2188 14.5265 12.1973 14.4948ZM7.92053 14.2849L7.96899 14.2856C8.19556 14.288 8.4165 14.2904 8.4165 14.7462V17.3802C8.401 17.7441 8.24829 17.7596 7.9342 17.7914L7.92053 17.7929V17.9341C8.16296 17.9285 8.40076 17.9234 8.64331 17.9234C8.76758 17.9234 8.89185 17.926 9.01868 17.9286C9.15063 17.9313 9.2854 17.9341 9.42566 17.9341C11.3356 17.9341 11.6484 16.5823 11.6484 16.0443C11.6484 15.0826 10.8876 14.1437 9.4906 14.1437C9.09106 14.1437 8.78357 14.154 8.55713 14.154C8.34631 14.154 8.13074 14.154 7.92053 14.1437V14.2849ZM9.50647 17.7599C9.24219 17.7599 8.94519 17.7113 8.94519 17.293V14.3393C8.97119 14.3377 8.99756 14.3354 9.02649 14.3329C9.10571 14.326 9.20386 14.3176 9.36621 14.3176C10.4073 14.3176 11.0546 15.0505 11.0546 16.066C11.0546 16.875 10.6721 17.7599 9.50647 17.7599ZM11.9392 17.7927H11.837V17.934C12.0365 17.9283 12.2308 17.9232 12.425 17.9232C12.5232 17.9232 12.6201 17.926 12.7157 17.9287L12.7194 17.9289C12.7693 17.9303 12.819 17.9316 12.8682 17.9326L12.9222 17.9335L12.9912 17.934V17.7927H12.8999C12.7487 17.7927 12.6298 17.7927 12.6298 17.613V15.5284C12.6298 15.4846 12.6187 15.4519 12.5922 15.4519C12.5647 15.4519 12.5328 15.4577 12.4949 15.4796C12.4735 15.4958 12.1711 15.5983 11.9176 15.675V15.7617C12.1176 15.87 12.1982 15.903 12.1982 16.1415V17.613C12.1982 17.6411 12.1957 17.6647 12.1907 17.6846C12.1744 17.7491 12.1335 17.7751 12.0762 17.7856C12.0372 17.7927 11.9907 17.7927 11.9392 17.7927ZM13.4575 15.9769C13.4924 16.0253 13.5042 16.0854 13.5042 16.1743V17.613C13.5042 17.7927 13.3964 17.7927 13.2454 17.7927H13.1481V17.934C13.342 17.9283 13.5365 17.9232 13.7303 17.9232C13.762 17.9232 13.7935 17.9235 13.8248 17.924C13.8893 17.9249 13.9532 17.9267 14.0167 17.9285L14.0208 17.9286C14.1151 17.9313 14.2089 17.934 14.3025 17.934V17.7927H14.2056C14.0544 17.7927 13.9353 17.7927 13.9353 17.613V16.0063L13.9697 15.9838C13.985 15.9739 14.0009 15.964 14.0171 15.9541C14.0452 15.9371 14.0746 15.9201 14.1047 15.9036L14.1445 15.8823L14.1755 15.8665L14.2063 15.8514C14.2263 15.8418 14.2466 15.8325 14.2668 15.8238C14.3319 15.7956 14.3962 15.7728 14.4552 15.7592C14.4934 15.7504 14.5294 15.7454 14.5618 15.7454C14.8696 15.7454 15.0576 15.8973 15.0576 16.2072V17.613C15.0576 17.7927 14.9501 17.7927 14.799 17.7927H14.7017V17.934C14.8296 17.9302 14.9575 17.9268 15.0854 17.9248C15.1517 17.9238 15.2181 17.9232 15.2845 17.9232C15.3806 17.9232 15.4752 17.9258 15.5693 17.9285L15.5741 17.9286C15.6686 17.9313 15.7625 17.934 15.8566 17.934V17.7927H15.7593C15.6084 17.7927 15.4894 17.7927 15.4894 17.613V16.2123C15.4894 15.7887 15.3276 15.4519 14.8696 15.4519C14.5076 15.4519 14.2433 15.637 13.9353 15.8593V15.5062C13.9353 15.4628 13.9196 15.4519 13.9032 15.4519C13.644 15.5661 13.423 15.637 13.1914 15.713V15.8161C13.3325 15.8737 13.4135 15.916 13.4575 15.9769ZM16.2668 16.4353C16.2559 16.4842 16.2559 16.5655 16.2668 16.7502C16.2987 17.266 16.6285 17.6893 17.0597 17.6893C17.3568 17.6893 17.5889 17.5264 17.7881 17.3259L17.8635 17.4019C17.6152 17.7331 17.3079 18.0156 16.8658 18.0156C16.0078 18.0156 15.8352 17.1789 15.8352 16.8315C15.8352 15.7671 16.5471 15.4519 16.9244 15.4519C17.3619 15.4519 17.8315 15.7288 17.8365 16.3046C17.8365 16.3299 17.8365 16.3547 17.8344 16.3796C17.8336 16.3872 17.8328 16.3948 17.8315 16.4025L17.7828 16.4353H16.2668ZM17.3723 16.1251C17.3723 16.1906 17.3566 16.2612 17.222 16.2612H16.2828C16.3475 15.8699 16.5742 15.6259 16.903 15.6259C17.2052 15.6259 17.3723 15.8486 17.3723 16.1251ZM17.9609 17.7927H18.1067C18.2572 17.7927 18.3652 17.7927 18.3652 17.613V16.0875C18.3652 15.9194 18.1658 15.8864 18.0847 15.843V15.7617C18.4785 15.5933 18.6945 15.4519 18.7438 15.4519C18.7517 15.4519 18.7587 15.4529 18.7646 15.4553C18.7825 15.4625 18.7915 15.4819 18.7915 15.5228V16.0116H18.8029C18.9374 15.7999 19.1643 15.4519 19.4933 15.4519C19.6281 15.4519 19.8005 15.5442 19.8005 15.7398C19.8005 15.8864 19.6985 16.0173 19.5475 16.0173C19.4662 16.0173 19.4243 15.9865 19.3811 15.9548C19.3353 15.9211 19.2881 15.8864 19.1907 15.8864C19.0991 15.8864 18.797 16.0116 18.797 16.3376V17.613C18.797 17.7927 18.9048 17.7927 19.0559 17.7927H19.3577V17.934L19.2463 17.9318C19.0027 17.9271 18.8053 17.9232 18.603 17.9232C18.4836 17.9232 18.3627 17.9247 18.2461 17.9269C18.1466 17.9288 18.0503 17.9313 17.9609 17.934V17.7927ZM20.7175 17.8417C20.323 17.8417 20.1077 17.5372 20.0374 17.1788L19.9402 17.2062L19.9999 17.8308C20.0107 17.837 20.0217 17.8431 20.033 17.8491C20.0845 17.8768 20.1403 17.902 20.1984 17.924C20.269 17.9508 20.343 17.9728 20.4169 17.9885C20.4989 18.0059 20.5808 18.0156 20.6577 18.0156C21.2999 18.0156 21.5856 17.6349 21.5856 17.2768C21.5856 16.8193 21.2252 16.6636 20.8912 16.5194C20.6029 16.3949 20.3342 16.2789 20.3342 15.9843C20.3342 15.7507 20.5391 15.626 20.7548 15.626C21.1005 15.626 21.2891 15.8214 21.343 16.1633H21.4669L21.4291 15.6099C21.2189 15.5012 20.9869 15.452 20.8146 15.452C20.2211 15.452 19.9781 15.8429 19.9781 16.1473C19.9781 16.6182 20.3193 16.7756 20.6342 16.9207C20.9037 17.045 21.1539 17.1603 21.1539 17.4561C21.1539 17.646 21.0354 17.8417 20.7175 17.8417ZM30.1163 17.6356C30.1163 17.687 30.1326 17.7129 30.1611 17.7259C30.1871 17.7377 30.2233 17.7388 30.2667 17.7388C30.3319 17.7388 30.4125 17.7336 30.4832 17.7336V17.848C30.251 17.8694 29.8083 17.9835 29.7057 18.0162L29.6788 17.9996V17.5598C29.3555 17.8257 29.1071 18.0162 28.7234 18.0162C28.4321 18.0162 28.1302 17.8257 28.1302 17.3702V15.9796C28.1302 15.8381 28.1088 15.7023 27.8071 15.6757V15.5721C27.8298 15.5715 27.8557 15.5706 27.8838 15.5693L27.9635 15.5653C28.0505 15.5606 28.1486 15.5545 28.2377 15.549L28.2461 15.5485L28.249 15.5483C28.3698 15.5407 28.4714 15.5344 28.5026 15.5344C28.5624 15.5344 28.5624 15.5721 28.5624 15.6918V17.0928C28.5624 17.2559 28.5624 17.7224 29.0316 17.7224C29.2148 17.7224 29.4576 17.5815 29.6841 17.3917V15.9305C29.6841 15.8982 29.6611 15.8701 29.6237 15.8453C29.6014 15.8306 29.5741 15.817 29.5436 15.8043C29.4688 15.7733 29.3743 15.7474 29.2863 15.7234L29.2313 15.7083V15.6107C29.5305 15.5902 29.7603 15.566 29.905 15.5504L29.9243 15.5483C30.0032 15.5398 30.0536 15.5344 30.0728 15.5344C30.1163 15.5344 30.1163 15.5721 30.1163 15.6321V17.6356ZM31.9929 15.4517C31.6962 15.4517 31.4048 15.6585 31.1891 15.8428V13.8611C31.1891 13.8176 31.1781 13.7845 31.146 13.7845C31.1296 13.7845 31.0865 13.8122 31.027 13.8443C30.9138 13.91 30.6875 14.0075 30.4714 14.078V14.165C30.6764 14.2249 30.7577 14.2356 30.7577 14.5889V16.9236C30.7577 17.0298 30.7549 17.1342 30.7495 17.2377C30.7461 17.3018 30.7418 17.3655 30.7366 17.4291L30.7314 17.4871C30.7294 17.5104 30.7272 17.5336 30.7247 17.5568C30.7134 17.6679 30.6991 17.7788 30.6823 17.8904L30.7954 17.9499L30.9567 17.825C31.0973 17.8847 31.3077 18.0154 31.7065 18.0154C32.4784 18.0154 32.9966 17.3037 32.9966 16.5926C32.9966 16.0008 32.6188 15.4517 31.9929 15.4517ZM31.1895 17.3196C31.1895 17.5259 31.3838 17.8737 31.7451 17.8737C32.3223 17.8737 32.5651 17.3034 32.5651 16.8199C32.5651 16.2335 32.123 15.7449 31.7024 15.7449C31.502 15.7449 31.335 15.8754 31.1895 16.0004V17.3196ZM8.80957 21.1921C8.73523 21.1921 8.65173 21.1889 8.56812 21.1858C8.52393 21.1841 8.47961 21.1826 8.43665 21.1816C8.40552 21.1808 8.375 21.1803 8.3457 21.1803L8.29443 21.1807L8.22876 21.1823C8.18799 21.1835 8.14685 21.1851 8.10681 21.1867C8.03589 21.1895 7.96863 21.1921 7.91418 21.1921H7.90137V21.0779H7.9552C7.99377 21.077 8.03113 21.0753 8.06311 21.0667C8.11926 21.0513 8.15894 21.0145 8.15955 20.9224V19.3743C8.15857 19.2297 8.06177 19.2203 7.9552 19.2184H7.90137V19.104H7.91418C7.96191 19.104 8.02002 19.106 8.08203 19.1083L8.10791 19.1092C8.18811 19.1123 8.27307 19.1155 8.349 19.1155C8.42224 19.1155 8.50305 19.1125 8.58289 19.1096H8.58508C8.66357 19.1068 8.74109 19.104 8.80957 19.104H8.82263V19.2184H8.76868C8.66199 19.2203 8.56458 19.2297 8.56396 19.3743V20.9224C8.56458 21.0668 8.66199 21.0754 8.76868 21.0779H8.82263V21.1921H8.80957ZM10.8755 21.2322L10.9963 21.2363H11.0116L11.0089 21.2216C10.9991 21.1599 10.9946 21.0917 10.9927 21.0215C10.9918 20.9897 10.9916 20.9575 10.9916 20.9252V19.5808C10.9951 19.2323 11.1195 19.2216 11.2407 19.2184H11.2972V19.104H11.2844C11.1631 19.104 11.0427 19.1155 10.9232 19.1155L10.8807 19.1152L10.8539 19.1147L10.8147 19.1135L10.7607 19.1116L10.719 19.1098L10.7153 19.1096C10.6481 19.1068 10.5806 19.104 10.5123 19.104H10.4993V19.2184H10.577C10.6625 19.2203 10.8182 19.2488 10.8197 19.4835V20.5704L9.52954 19.1086C9.43054 19.104 9.34583 19.1155 9.25818 19.1155C9.20337 19.1155 9.14746 19.1127 9.09119 19.1098C9.03442 19.1069 8.97742 19.104 8.92102 19.104H8.90808V19.2184H8.95947C9.08508 19.2184 9.21338 19.3141 9.21387 19.4716V20.716C9.21179 20.9513 9.15637 21.0768 8.96228 21.0779H8.90808V21.1921H8.92102C9.05396 21.1921 9.18884 21.1803 9.32031 21.1803C9.38269 21.1803 9.44543 21.1832 9.5083 21.1862C9.57166 21.1891 9.63525 21.1921 9.69897 21.1921H9.71191V21.0779H9.64905C9.42798 21.0751 9.38928 21.0021 9.38562 20.7452V19.5608L10.8755 21.2322ZM12.881 21.1935C12.7654 21.1935 12.5601 21.1818 12.4025 21.1818C12.3051 21.1818 12.1987 21.1854 12.1036 21.1887C12.0269 21.1912 11.9574 21.1935 11.9059 21.1935H11.8933V21.0793H11.9619C12.1237 21.0756 12.1886 21.0734 12.1923 20.8442V19.2787H11.724C11.6305 19.2806 11.578 19.2885 11.5448 19.3141C11.5009 19.3482 11.4906 19.4136 11.4634 19.538L11.4613 19.548H11.3481L11.3497 19.5327L11.3556 19.4935L11.3611 19.4575L11.3615 19.4555L11.3618 19.4533L11.3622 19.4511L11.3698 19.4014C11.3756 19.3619 11.3811 19.322 11.3851 19.2815C11.3973 19.1995 11.403 19.1176 11.403 19.0328V19.0198H11.4962L11.4984 19.0291C11.5046 19.0525 11.5143 19.0686 11.5269 19.0797C11.5544 19.104 11.5961 19.1046 11.6473 19.1055H13.1768C13.2585 19.1041 13.3181 19.103 13.3231 19.0257L13.3241 19.0117L13.3374 19.0144L13.4204 19.0276L13.4183 19.0407C13.4066 19.12 13.3951 19.1995 13.3864 19.2787C13.3828 19.3301 13.3816 19.3815 13.3811 19.4332L13.3809 19.5172V19.5261L13.3723 19.5296L13.2684 19.5678L13.2677 19.5507C13.2634 19.4918 13.2583 19.4191 13.2268 19.3636C13.1989 19.3143 13.15 19.2787 13.0627 19.2787H12.5941V20.8381C12.597 21.0609 12.6848 21.0766 12.8248 21.0793H12.8934V21.1935H12.881ZM15.0704 21.1942C14.9841 21.1942 14.8665 21.1915 14.7389 21.1887C14.5881 21.1854 14.4237 21.1818 14.281 21.1818C14.0165 21.1818 13.6676 21.1942 13.4999 21.1942H13.4875V21.08H13.5413C13.5587 21.0797 13.5759 21.0792 13.5924 21.0779C13.6077 21.0767 13.6226 21.0749 13.6365 21.0719L13.6434 21.0703L13.6508 21.0684L13.6624 21.0647C13.7113 21.0472 13.7448 21.0089 13.7455 20.9244V19.3763C13.7441 19.2319 13.6475 19.2224 13.5413 19.2205H13.4875V19.106H13.4999C13.5825 19.106 13.6918 19.1085 13.8097 19.1111C13.9479 19.1142 14.0979 19.1176 14.2306 19.1176L14.3135 19.1171L14.3729 19.1165L14.4309 19.1156L14.5342 19.1138L14.647 19.1113H14.6488H14.6514C14.7732 19.1086 14.889 19.106 14.9821 19.106H14.9951L14.9946 19.1197C14.9928 19.1638 14.9916 19.2164 14.9916 19.272C14.9916 19.309 14.9919 19.3473 14.9928 19.385C14.9941 19.4515 14.9967 19.5165 15.0005 19.5702L15.001 19.5807L14.9911 19.5837L14.8879 19.6109L14.8875 19.5957C14.8701 19.404 14.8446 19.2645 14.5424 19.2616H14.1466L14.1464 20.01H14.4833C14.578 20.009 14.6292 19.9813 14.6593 19.9291C14.6664 19.9171 14.6722 19.9036 14.6772 19.8889C14.6815 19.8763 14.6853 19.8627 14.6886 19.8481C14.6943 19.8223 14.6987 19.7935 14.7028 19.7618L14.7034 19.7499H14.8163L14.8162 19.7635C14.8104 19.8789 14.807 19.9938 14.807 20.1089C14.807 20.2206 14.8104 20.3328 14.8162 20.4451L14.8163 20.4558L14.8057 20.4583L14.7034 20.4788L14.7028 20.4649L14.7 20.44C14.6818 20.2754 14.6719 20.1855 14.4863 20.1835H14.1466V20.8591C14.1471 21.037 14.2979 21.0378 14.4867 21.0388H14.4922C14.8457 21.0367 14.9872 21.0192 15.0757 20.6878L15.0787 20.6758L15.0911 20.6779L15.1852 20.7025L15.1825 20.7147C15.1444 20.871 15.1094 21.0273 15.0828 21.1837L15.0806 21.1942H15.0704ZM17.3097 21.1942C17.2112 21.1942 17.1179 21.1823 17.0214 21.1823C16.9854 21.1823 16.9486 21.1842 16.9109 21.1862C16.8549 21.1891 16.7969 21.1921 16.7357 21.1892C16.5105 20.8917 16.3175 20.5745 16.1279 20.2372H15.9545V20.856C15.9576 21.0748 16.0433 21.0767 16.1753 21.0798L16.1819 21.08H16.2478V21.1942H16.2349C16.067 21.1942 15.8965 21.1823 15.7301 21.1823C15.6836 21.1823 15.6375 21.1836 15.5911 21.1854L15.5227 21.1881H15.5209H15.519H15.5176L15.5081 21.1885L15.5 21.1888C15.4668 21.1902 15.4332 21.1917 15.3994 21.1926L15.3547 21.1937L15.3046 21.1942H15.2917V21.08H15.3575C15.4631 21.0792 15.5524 21.0328 15.5527 20.9335V19.4318C15.5505 19.2264 15.4525 19.2234 15.3627 19.2206L15.3575 19.2205H15.2917V19.106H15.3046C15.3995 19.106 15.5808 19.1176 15.7598 19.1176C15.8276 19.1176 15.8903 19.1158 15.9506 19.1137L16.0126 19.1115L16.1053 19.1082C16.1472 19.1069 16.1892 19.106 16.2323 19.106C16.6024 19.1068 16.943 19.2094 16.9438 19.6387C16.9438 19.9053 16.7688 20.072 16.5424 20.1649L17.0353 20.9083C17.1174 21.0308 17.1686 21.0615 17.3114 21.08L17.322 21.0816V21.1942H17.3097ZM15.9424 20.1299H15.9293V19.2252L15.9406 19.2242C15.9807 19.221 16.0204 19.2128 16.1091 19.2128C16.3765 19.2128 16.5505 19.3876 16.5508 19.6571C16.55 20.0099 16.3821 20.1298 16.0859 20.1299H15.9424ZM19.3521 21.2342L19.4727 21.2383H19.4869L19.4855 21.2238C19.4705 21.1332 19.4679 21.0307 19.4679 20.9272V19.5828C19.4708 19.2343 19.5956 19.2233 19.7167 19.2205H19.7733V19.106H19.7604C19.7205 19.106 19.6807 19.1073 19.641 19.109L19.579 19.1118L19.5215 19.1144C19.4807 19.1162 19.4401 19.1176 19.3995 19.1176C19.3311 19.1176 19.2631 19.1147 19.1949 19.1118C19.1265 19.1089 19.0579 19.106 18.9883 19.106H18.9755V19.2205H19.053C19.1383 19.2218 19.2947 19.2509 19.2954 19.4855V20.5724L18.0049 19.1098C17.9064 19.106 17.8214 19.1176 17.7352 19.1176L17.6991 19.1172L17.6471 19.1156L17.5673 19.1118L17.564 19.1116C17.5083 19.1088 17.4525 19.106 17.3973 19.106H17.3843V19.2205H17.4357C17.4944 19.2205 17.5537 19.2413 17.6002 19.2795C17.6532 19.3231 17.6895 19.3893 17.6896 19.4731V20.7173C17.6877 20.9533 17.6322 21.0792 17.4382 21.08H17.3843V21.1942H17.3973L17.4465 21.1937L17.4976 21.1921L17.5492 21.1901L17.5978 21.1879L17.6831 21.1843C17.7211 21.1829 17.7589 21.1818 17.7963 21.1818C17.8263 21.1818 17.8564 21.1825 17.8866 21.1836C17.9199 21.1848 17.9532 21.1864 17.9867 21.188L18.0671 21.1917C18.103 21.1931 18.1389 21.1942 18.175 21.1942H18.1877V21.08H18.1256C17.9042 21.0771 17.8655 21.0045 17.8621 20.7471V19.563L19.3521 21.2342ZM21.7518 21.1935L21.7969 21.1955L21.8099 21.1962V21.0807H21.7803C21.7418 21.0806 21.7101 21.0754 21.6837 21.064C21.6453 21.0473 21.6182 21.0173 21.598 20.9707C21.5796 20.9286 21.5619 20.8815 21.5447 20.8325L21.5319 20.7954L21.5205 20.7622L21.4998 20.7003L21.4899 20.6705L20.9493 19.1251C20.9404 19.1013 20.9312 19.0747 20.9229 19.0505C20.9132 19.035 20.8975 19.0331 20.8903 19.0336C20.8844 19.0336 20.8794 19.0345 20.8749 19.0358C20.8704 19.0371 20.8663 19.0388 20.8622 19.0403C20.8058 19.0759 20.6876 19.1356 20.5956 19.167C20.5825 19.2278 20.562 19.2963 20.54 19.3633C20.5248 19.4097 20.5089 19.4553 20.4943 19.4973L20.479 19.5415L20.0089 20.8978C19.9664 21.0178 19.8752 21.0805 19.7661 21.0807H19.7357V21.1962L19.7494 21.1955L19.78 21.1938C19.8236 21.1914 19.8673 21.189 19.9109 21.1871C19.9625 21.1848 20.0142 21.1832 20.0654 21.1832C20.1829 21.1832 20.3026 21.1898 20.42 21.1955L20.4333 21.1962V21.0807H20.3882C20.2908 21.0807 20.1812 21.063 20.1802 20.9908C20.1802 20.9869 20.1803 20.9827 20.1807 20.9784C20.1815 20.9697 20.1833 20.96 20.1858 20.9496C20.1871 20.9438 20.1887 20.9378 20.1906 20.9315C20.1965 20.9108 20.2045 20.8875 20.2133 20.8618L20.2136 20.8604L20.2179 20.848C20.2267 20.8222 20.2361 20.7942 20.2449 20.7642L20.3362 20.4656H20.9838L21.0955 20.7999C21.1149 20.8563 21.1322 20.908 21.1427 20.9475C21.1497 20.9739 21.1537 20.995 21.1534 21.0085C21.1534 21.0346 21.1322 21.0519 21.1027 21.063C21.0909 21.0675 21.0779 21.071 21.0643 21.0736C21.0569 21.075 21.0493 21.0762 21.0416 21.0772C21.0219 21.0797 21.0021 21.0807 20.9844 21.0807H20.9391V21.1962L20.9528 21.1955L21.015 21.1931C21.1432 21.1881 21.2689 21.1832 21.3928 21.1832C21.5167 21.1832 21.6348 21.1884 21.7518 21.1935ZM20.6453 19.4374L20.3643 20.2996H20.9489L20.6698 19.4374H20.661H20.6453ZM22.8794 21.1884H22.8809C22.9581 21.191 23.03 21.1935 23.0829 21.1935H23.0952V21.0793H23.0267C22.9445 21.0778 22.8802 21.0717 22.8406 21.0216C22.8129 20.9865 22.7971 20.9299 22.7959 20.8381V19.2787H23.2646C23.4502 19.2787 23.4619 19.4395 23.4695 19.5507L23.47 19.5678L23.5739 19.5296L23.5824 19.5261V19.5172C23.5824 19.4374 23.5824 19.3579 23.5884 19.2787C23.5973 19.1995 23.6084 19.12 23.6205 19.0407L23.6226 19.0276L23.5392 19.0144L23.5255 19.0117L23.525 19.0259C23.5199 19.103 23.4607 19.1041 23.3794 19.1055H21.8494C21.7743 19.1041 21.7208 19.1036 21.7003 19.0291L21.6979 19.0198H21.6046V19.0328C21.6046 19.1176 21.5991 19.1995 21.5872 19.2822C21.5808 19.3458 21.5712 19.4081 21.5616 19.4702L21.5519 19.5334L21.55 19.548H21.6633L21.6655 19.538L21.6731 19.5032C21.6913 19.4185 21.7028 19.3653 21.7288 19.332C21.7604 19.2916 21.8135 19.2806 21.9263 19.2787H22.3943L22.3945 20.8442C22.3906 21.0734 22.3258 21.0756 22.1638 21.0793H22.0951V21.1935H22.108C22.1595 21.1935 22.2292 21.1912 22.3062 21.1886L22.3109 21.1884H22.3127L22.316 21.1882C22.4086 21.1852 22.5105 21.1818 22.604 21.1818C22.6499 21.1818 22.7 21.1828 22.7506 21.1841L22.8735 21.188L22.8761 21.1882L22.8794 21.1884ZM24.1488 21.1818C24.2953 21.1818 24.4708 21.1942 24.6128 21.1942H24.625V21.08H24.5717C24.4642 21.0781 24.3677 21.0688 24.3666 20.9244V19.3763C24.3673 19.288 24.4037 19.2501 24.4565 19.2335C24.4764 19.2274 24.4987 19.2242 24.5221 19.2225C24.5381 19.2213 24.5547 19.2208 24.5717 19.2205H24.625V19.106H24.6128C24.5452 19.106 24.4689 19.1087 24.3914 19.1115L24.3877 19.1116H24.3859C24.3058 19.1146 24.2246 19.1176 24.1511 19.1176C24.1074 19.1176 24.0605 19.1165 24.0132 19.1149L23.9111 19.1113C23.8394 19.1086 23.7714 19.106 23.7172 19.106H23.7046V19.2205H23.7584C23.8641 19.2224 23.9617 19.2319 23.9624 19.3763V20.9244C23.9617 21.0688 23.8641 21.0781 23.7584 21.08H23.7046V21.1942H23.7172C23.7712 21.1942 23.8384 21.1914 23.9093 21.1885C23.9888 21.1853 24.0729 21.1818 24.1488 21.1818ZM25.7825 19.0621C25.1658 19.0631 24.6879 19.5439 24.6866 20.1653C24.6879 20.8078 25.1699 21.2376 25.7979 21.2387C26.4288 21.2376 26.9192 20.7811 26.9198 20.0944C26.9187 19.4571 26.4127 19.0628 25.7825 19.0621ZM25.0983 20.0621C25.0991 19.6644 25.2533 19.1922 25.7775 19.1922C26.2759 19.1933 26.5084 19.7258 26.5094 20.16C26.5084 20.5909 26.4077 21.1086 25.8275 21.1086C25.3403 21.1082 25.0991 20.594 25.0983 20.0621ZM29.0559 21.2383L28.9344 21.2342L27.4447 19.563V20.7472C27.4481 21.0045 27.4869 21.0768 27.7074 21.0794H27.7706V21.1942H27.7582C27.6943 21.1942 27.6309 21.1912 27.5675 21.1882C27.5046 21.1852 27.442 21.1823 27.3795 21.1823C27.314 21.1823 27.2474 21.1852 27.1808 21.1882C27.1477 21.1896 27.1146 21.1911 27.0817 21.1922L27.0334 21.1935C27.0155 21.1939 26.9976 21.1942 26.9796 21.1942H26.9677V21.0794H27.0211C27.2146 21.0788 27.2704 20.9533 27.2727 20.718V19.4731C27.2726 19.3156 27.1442 19.2205 27.0181 19.2205H26.9677V19.106H26.9796C27.0922 19.106 27.2067 19.1176 27.3176 19.1176C27.3531 19.1176 27.3882 19.1157 27.4241 19.1137L27.427 19.1135C27.4537 19.1121 27.481 19.1106 27.5092 19.1099C27.5347 19.1093 27.561 19.1093 27.5886 19.1106L28.8784 20.5724V19.4855C28.8774 19.2509 28.7211 19.2224 28.6355 19.2205H28.5581V19.106H28.5715C28.6144 19.106 28.657 19.1072 28.6995 19.1087L28.7775 19.1118C28.8456 19.1147 28.9135 19.1176 28.9817 19.1176C29.1018 19.1176 29.2216 19.106 29.3436 19.106H29.356V19.2205H29.2993C29.1782 19.2236 29.0533 19.2347 29.0509 19.5828V20.9272L29.051 20.9708L29.0515 21.0099L29.0527 21.0543L29.0543 21.0916C29.0557 21.1157 29.0574 21.1395 29.0597 21.1625L29.0626 21.1888C29.0641 21.2006 29.0657 21.2123 29.0675 21.2238L29.0701 21.2383H29.0559ZM31.3796 21.1954C31.2472 21.1902 31.1155 21.1836 30.9755 21.1836C30.8322 21.1836 30.6851 21.1902 30.5355 21.1954L30.5225 21.1961V21.0812H30.5671C30.6053 21.0812 30.6539 21.0762 30.6892 21.0619C30.6952 21.0595 30.7007 21.0568 30.7058 21.0538L30.7114 21.0503C30.7151 21.0478 30.7184 21.0452 30.7213 21.0424C30.7257 21.0382 30.7292 21.0336 30.7318 21.0286C30.7334 21.0256 30.7346 21.0225 30.7354 21.0192C30.7362 21.0158 30.7367 21.0122 30.7367 21.0084C30.7374 20.9748 30.7108 20.8942 30.6779 20.7999L30.5665 20.4655H29.9185L29.8278 20.7642C29.8209 20.7876 29.8138 20.8098 29.8069 20.8306L29.7981 20.8566L29.797 20.86C29.7784 20.9152 29.7637 20.9592 29.7639 20.9905C29.7639 21.0629 29.874 21.0812 29.9711 21.0812H30.0159V21.1961L30.0027 21.1954L29.9471 21.1929C29.8478 21.1883 29.7468 21.1836 29.6483 21.1836C29.5431 21.1836 29.4377 21.1902 29.3319 21.1954L29.3191 21.1961V21.0812H29.3485C29.458 21.0807 29.5496 21.0176 29.5925 20.8977L30.062 19.5414L30.0754 19.5025C30.1116 19.3987 30.1556 19.2716 30.1785 19.1674C30.2708 19.1352 30.3887 19.0759 30.4457 19.0402L30.4471 19.0397C30.4542 19.0369 30.4623 19.0338 30.4735 19.0338C30.4811 19.0331 30.4965 19.035 30.5055 19.0511L30.5172 19.0833L30.5184 19.0868C30.5221 19.0971 30.5258 19.1074 30.5297 19.1174L30.5326 19.125L31.0725 20.6704C31.1078 20.7739 31.1428 20.8831 31.1809 20.9712C31.2155 21.0494 31.2686 21.0805 31.3624 21.0812H31.3928V21.1961L31.3796 21.1954ZM29.9474 20.2994L30.2292 19.4374H30.2445H30.2534L30.531 20.2994H29.9474ZM32.6461 21.1883L32.5612 21.1863C32.4601 21.1841 32.359 21.1823 32.2581 21.1823C31.9998 21.1823 31.7415 21.1942 31.4825 21.1942H31.4702V21.08H31.5238C31.6299 21.0774 31.7307 21.0699 31.7319 20.895V19.3758C31.7307 19.2319 31.6304 19.2224 31.5238 19.2205H31.4702V19.106H31.4825C31.521 19.106 31.5592 19.1068 31.5973 19.1078C31.6368 19.1089 31.6763 19.1104 31.7156 19.1118C31.7925 19.1147 31.8693 19.1176 31.9465 19.1176C32.0959 19.1176 32.2422 19.106 32.3933 19.106H32.405V19.2205H32.3195L32.3049 19.2208C32.1996 19.2231 32.1348 19.2246 32.1323 19.3673V20.8917C32.1332 21.0022 32.2051 21.0317 32.2969 21.0449C32.3296 21.0472 32.3635 21.0488 32.3983 21.0497C32.4185 21.0502 32.439 21.0504 32.4596 21.0504C32.4812 21.0504 32.5031 21.0501 32.5251 21.0494C32.5425 21.049 32.5599 21.0482 32.5775 21.0473C32.6119 21.0454 32.6467 21.0427 32.6819 21.039C32.712 21.0354 32.7411 21.0283 32.7684 21.0186L32.7863 21.0118L32.8027 21.0046C32.8104 21.0011 32.818 20.9974 32.8254 20.9935C32.8324 20.9897 32.8392 20.9859 32.8458 20.9819C32.8921 20.9541 32.9299 20.9195 32.9551 20.8846C33.0005 20.8215 33.026 20.7405 33.0438 20.6761L33.0463 20.6664H33.1569L33.1543 20.682C33.1211 20.8509 33.0807 21.0157 33.0452 21.1842L33.0427 21.1942H33.033C32.9039 21.1942 32.775 21.1912 32.6461 21.1883Z" fill="#1A1919"/>
<path fill-rule="evenodd" clip-rule="evenodd" d="M14.5552 8.64252C14.5552 11.4709 16.9003 13.7944 19.7495 13.7807H21.0847C23.9003 13.7807 26.4698 11.4699 26.4698 8.64252C26.4698 5.55048 23.9003 3.41339 21.0847 3.414H19.7495C16.9003 3.41339 14.5552 5.55145 14.5552 8.64252Z" fill="#0069AA"/>
</svg>
