<svg width="41" height="25" viewBox="0 0 41 25" fill="none" xmlns="http://www.w3.org/2000/svg">
<path d="M0.575439 1.18604C0.575439 0.909893 0.799298 0.686035 1.07544 0.686035H39.2764C39.5526 0.686035 39.7764 0.909892 39.7764 1.18604V23.4651C39.7764 23.7412 39.5526 23.9651 39.2764 23.9651H1.07544C0.799297 23.9651 0.575439 23.7412 0.575439 23.4651V1.18604Z" fill="white" stroke="#ADADAD"/>
<path fill-rule="evenodd" clip-rule="evenodd" d="M9.36804 24.0599H36.8744C38.5313 24.0599 39.8744 22.7168 39.8744 21.0599V13.4168C39.8744 13.4168 29.1004 20.7693 9.36804 24.0599Z" fill="#E6772F"/>
<path fill-rule="evenodd" clip-rule="evenodd" d="M16.9048 13.525C15.4585 13.525 14.3351 12.4568 14.3351 11.0781C14.3351 9.71631 15.4863 8.62708 16.9242 8.62708C17.3354 8.62708 17.6768 8.71094 18.0927 8.91357V9.98962C17.6989 9.61597 17.3549 9.4624 16.9048 9.4624C16.0126 9.4624 15.3138 10.1737 15.3138 11.0717C15.3138 12.022 15.9907 12.688 16.9464 12.688C17.3783 12.688 17.7123 12.5427 18.0927 12.1744V13.2518C17.6622 13.4475 17.3126 13.525 16.9048 13.525ZM12.6357 10.5295C12.0648 10.3279 11.8979 10.1936 11.8979 9.94019C11.8979 9.64575 12.1962 9.42236 12.6062 9.42236C12.8905 9.42236 13.1246 9.53198 13.374 9.79968L13.8678 9.17578C13.4598 8.82983 12.9716 8.65479 12.4392 8.65479C11.5779 8.65479 10.9214 9.23193 10.9214 9.99524C10.9214 10.6432 11.2266 10.9719 12.1172 11.2841C12.3046 11.3468 12.4456 11.3995 12.5516 11.4438C12.6562 11.4875 12.7268 11.5229 12.7744 11.5516C12.9641 11.6698 13.0586 11.8391 13.0586 12.0347C13.0586 12.416 12.745 12.6964 12.3209 12.6964C11.8694 12.6964 11.5042 12.4786 11.2855 12.0698L10.6736 12.6406C11.1111 13.2581 11.6355 13.5341 12.3579 13.5341C13.3433 13.5341 14.0375 12.8986 14.0375 11.9935C14.0375 11.2478 13.7156 10.9098 12.6357 10.5295ZM6.12708 12.6271C6.74146 12.6271 7.12561 12.5135 7.42749 12.2538C7.75415 11.974 7.95056 11.5239 7.95056 11.0721C7.95056 10.6226 7.75415 10.1879 7.42749 9.90613C7.11096 9.63342 6.74146 9.52747 6.12708 9.52747H5.87219V12.6271H6.12708ZM4.92236 8.7334H6.31714C7.85583 8.7334 8.9292 9.6947 8.9292 11.0785C8.9292 11.7699 8.60022 12.4371 8.04578 12.8792C7.57898 13.2522 7.04651 13.4214 6.30872 13.4214H4.92236V8.7334ZM10.3126 8.7334H9.36682V13.4214H10.3126V8.7334ZM25.7832 11.8807L24.4852 8.7334H23.4504L25.5137 13.5397H26.0226L28.1259 8.7334H27.0991L25.7832 11.8807ZM31.2478 13.4214H28.5563V8.7334H31.2478V9.52734H29.5059V10.5674H31.1818V11.3616H29.5059V12.627H31.2478V13.4214ZM35.0059 10.1166C35.0059 9.23865 34.3807 8.7334 33.2849 8.7334H31.8751V13.4214H32.8268V11.5365H32.9502L34.2615 13.4214H35.4292L33.8979 11.4456C34.6135 11.3046 35.0059 10.8339 35.0059 10.1166ZM32.8259 10.8877H33.1014C33.71 10.8877 34.0276 10.6354 34.0276 10.1661C34.0276 9.70947 33.71 9.46973 33.1169 9.46973H32.8259V10.8877Z" fill="#1A1919"/>
<path fill-rule="evenodd" clip-rule="evenodd" d="M23.5841 11.09C23.5841 12.4397 22.4487 13.5336 21.0469 13.5336C19.6454 13.5336 18.5099 12.4397 18.5099 11.09C18.5099 9.74012 19.6454 8.646 21.0469 8.646C22.4487 8.646 23.5841 9.74012 23.5841 11.09Z" fill="#E6772F"/>
</svg>
