<?xml version="1.0" encoding="utf-8"?>
<!-- Generator: Adobe Illustrator 25.0.1, SVG Export Plug-In . SVG Version: 6.00 Build 0)  -->
<svg version="1.1" id="Layer_1" xmlns="http://www.w3.org/2000/svg" xmlns:xlink="http://www.w3.org/1999/xlink" x="0px" y="0px"
	 width="39px" height="22px" viewBox="0 0 39 22" style="enable-background:new 0 0 39 22;" xml:space="preserve">
<style type="text/css">
	.st0{fill:#FFFFFF;stroke:#BCBCBC;stroke-miterlimit:10;}
	.st1{fill:#1434CB;}
</style>
<path class="st0" d="M34.8,21.5H4.2c-1.9,0-3.5-1.6-3.5-3.5V4c0-1.9,1.6-3.5,3.5-3.5h30.7c1.9,0,3.5,1.6,3.5,3.5v14
	C38.3,19.9,36.8,21.5,34.8,21.5z"/>
<path class="st1" d="M16.4,6.9L12.9,15h-2.1L9.1,8.5C9,8.1,8.9,8,8.6,7.9c-0.5-0.3-1.3-0.6-2-0.7L6.6,7h3.6c0.4,0,0.9,0.3,1,0.8
	l0.9,4.7L14.2,7L16.4,6.9L16.4,6.9z M25.1,12.4c0-2.1-3-2.3-3-3.2c0-0.3,0.3-0.6,0.9-0.7c0.3-0.1,1.1-0.1,2,0.4l0.4-1.7
	c-0.5-0.2-1.2-0.4-2-0.4c-2.1,0-3.5,1.1-3.5,2.6c0,1.2,1,1.8,1.9,2.2c0.8,0.4,1.1,0.7,1.1,1c0,0.6-0.7,0.8-1.2,0.8
	c-1,0-1.7-0.3-2.1-0.5l-0.4,1.8c0.5,0.2,1.4,0.4,2.4,0.4C23.6,15.1,25.1,14,25.1,12.4 M30.5,15h1.9l-1.7-8.1H29
	c-0.4,0-0.7,0.2-0.9,0.6L25,15.1h2.2l0.4-1.2h2.7L30.5,15z M28.2,12.1l1.1-3l0.6,3H28.2z M19.4,6.9L17.7,15h-2.1l1.7-8.1H19.4
	L19.4,6.9z"/>
</svg>
