<svg width="42" height="22" viewBox="0 0 42 22" fill="none" xmlns="http://www.w3.org/2000/svg">
<path d="M1.26758 1C1.26758 0.723858 1.49144 0.5 1.76758 0.5H40.2327C40.5088 0.5 40.7327 0.723858 40.7327 1V21C40.7327 21.2761 40.5088 21.5 40.2327 21.5H1.76758C1.49144 21.5 1.26758 21.2761 1.26758 21V1Z" fill="white" stroke="#ADADAD"/>
<path fill-rule="evenodd" clip-rule="evenodd" d="M26.4575 11.2973H26.471H26.497H26.5231H26.5491H26.5752H26.6012H26.6273H26.6533H26.6794H26.7054H26.7314H26.7575H26.7835H26.8096H26.8356H26.8617H26.8877H26.9138H26.9398H26.9659H26.9919H27.018H27.044H27.0701H27.0961H27.1221H27.1482H27.1742H27.2003H27.2263H27.2524H27.2784H27.3045H27.3305H27.3566H27.3826H27.4086H27.4347H27.4607H27.4868H27.5128H27.5389H27.5649H27.591H27.617H27.6431H27.6691H27.6952H27.7212H27.7472H27.7733H27.7993H27.8254H27.8514H27.8775H27.9035H27.9296H27.9556H27.9817H28.0077H28.0294L28.0338 11.2974C28.0418 11.2976 28.0506 11.2979 28.0598 11.2984C28.0682 11.2988 28.0769 11.2993 28.0858 11.2999C28.0944 11.3005 28.1032 11.3011 28.1119 11.3019C28.1207 11.3026 28.1294 11.3034 28.1379 11.3042C28.1469 11.3051 28.1557 11.3061 28.164 11.3071C28.1733 11.3083 28.1821 11.3094 28.19 11.3107C28.1958 11.3115 28.201 11.3124 28.2058 11.3134L28.2161 11.3155C28.2248 11.3173 28.2335 11.3193 28.2421 11.3215C28.2509 11.3237 28.2595 11.326 28.2682 11.3285C28.2769 11.331 28.2856 11.3337 28.2942 11.3365C28.303 11.3394 28.3116 11.3424 28.3202 11.3456C28.329 11.3489 28.3377 11.3523 28.3463 11.3559C28.3551 11.3595 28.3638 11.3633 28.3723 11.3672C28.3811 11.3713 28.3898 11.3755 28.3984 11.3799C28.4072 11.3844 28.4159 11.3891 28.4244 11.3939C28.4332 11.3989 28.4419 11.404 28.4505 11.4093C28.4593 11.4148 28.468 11.4204 28.4765 11.4262C28.4854 11.4323 28.4941 11.4385 28.5026 11.445C28.5114 11.4516 28.5201 11.4585 28.5286 11.4656C28.5375 11.473 28.5462 11.4806 28.5547 11.4884C28.5636 11.4967 28.5723 11.5052 28.5807 11.5139C28.5897 11.5231 28.5984 11.5327 28.6068 11.5424C28.6158 11.5529 28.6245 11.5637 28.6328 11.5748C28.6419 11.5869 28.6506 11.5994 28.6589 11.6121C28.6681 11.6265 28.6768 11.6414 28.6849 11.6566C28.6945 11.6746 28.7032 11.6932 28.711 11.7123C28.7214 11.738 28.7301 11.7646 28.737 11.7921C28.7489 11.8398 28.7553 11.8899 28.7553 11.9423C28.7553 11.995 28.7489 12.0454 28.737 12.0932C28.7301 12.1207 28.7214 12.1474 28.711 12.1732C28.7032 12.1923 28.6945 12.2109 28.6849 12.229C28.6768 12.2443 28.6681 12.2591 28.6589 12.2735C28.6506 12.2863 28.642 12.2988 28.6328 12.3109C28.6245 12.322 28.6158 12.3328 28.6068 12.3433C28.5984 12.353 28.5897 12.3625 28.5807 12.3718C28.5723 12.3805 28.5636 12.389 28.5547 12.3972C28.5462 12.405 28.5375 12.4126 28.5286 12.42C28.5201 12.4271 28.5114 12.4339 28.5026 12.4406C28.4941 12.447 28.4854 12.4532 28.4765 12.4593C28.468 12.4651 28.4593 12.4707 28.4505 12.4762C28.4419 12.4815 28.4332 12.4866 28.4244 12.4915C28.4159 12.4963 28.4072 12.501 28.3984 12.5054C28.3898 12.5098 28.3811 12.514 28.3723 12.518C28.3638 12.5219 28.3551 12.5257 28.3463 12.5293C28.3377 12.5329 28.329 12.5362 28.3202 12.5394C28.3116 12.5426 28.303 12.5456 28.2942 12.5485C28.2856 12.5513 28.2769 12.5539 28.2682 12.5564C28.2595 12.5589 28.2509 12.5611 28.2421 12.5633C28.2335 12.5654 28.2248 12.5674 28.2161 12.5692L28.2058 12.5713C28.201 12.5723 28.1958 12.5732 28.19 12.5742C28.1821 12.5754 28.1733 12.5766 28.164 12.5778C28.1557 12.5788 28.1469 12.5798 28.1379 12.5807C28.1294 12.5815 28.1207 12.5823 28.1119 12.583C28.1032 12.5838 28.0944 12.5844 28.0858 12.5849C28.0769 12.5855 28.0682 12.586 28.0598 12.5864C28.0506 12.5869 28.0418 12.5872 28.0338 12.5874L28.0198 12.5875H28.0077H27.9817H27.9556H27.9296H27.9035H27.8775H27.8514H27.8254H27.7993H27.7733H27.7472H27.7212H27.6952H27.6691H27.6431H27.617H27.591H27.5649H27.5389H27.5128H27.4868H27.4607H27.4347H27.4086H27.3826H27.3566H27.3305H27.3045H27.2784H27.2524H27.2263H27.2003H27.1742H27.1482H27.1221H27.0961H27.0701H27.044H27.018H26.9919H26.9659H26.9398H26.9138H26.8877H26.8617H26.8356H26.8096H26.7835H26.7575H26.7314H26.7054H26.6794H26.6533H26.6273H26.6012H26.5752H26.5491H26.5231H26.497H26.471H26.4575V11.2973ZM28.5548 9.83652C28.5652 9.87983 28.5709 9.92569 28.5709 9.974C28.5709 10.0222 28.5652 10.0681 28.5548 10.1113C28.548 10.1391 28.5393 10.1659 28.5287 10.1915C28.521 10.2102 28.5123 10.2283 28.5027 10.2458C28.4946 10.2604 28.4859 10.2746 28.4766 10.2884C28.4684 10.3006 28.4597 10.3124 28.4506 10.3238C28.4422 10.3343 28.4336 10.3444 28.4245 10.3543C28.4161 10.3634 28.4075 10.3723 28.3985 10.3809C28.39 10.389 28.3814 10.3969 28.3725 10.4045C28.364 10.4117 28.3553 10.4187 28.3464 10.4255C28.3379 10.432 28.3292 10.4383 28.3204 10.4444C28.3118 10.4503 28.3031 10.4559 28.2943 10.4614C28.2858 10.4667 28.2771 10.4718 28.2683 10.4767C28.2597 10.4814 28.251 10.486 28.2422 10.4904C28.2336 10.4948 28.225 10.4989 28.2162 10.5029C28.2076 10.5067 28.1989 10.5104 28.1901 10.514C28.1815 10.5174 28.1728 10.5207 28.1641 10.5238C28.1555 10.5269 28.1468 10.5298 28.138 10.5326C28.1294 10.5353 28.1207 10.5379 28.112 10.5403C28.1034 10.5426 28.0947 10.5449 28.0859 10.5469C28.0773 10.5489 28.0686 10.5508 28.0599 10.5525C28.0513 10.5543 28.0426 10.5558 28.0339 10.5572L28.0275 10.5582C28.0225 10.559 28.0157 10.5599 28.0078 10.5608C28.0001 10.5617 27.9913 10.5626 27.9818 10.5635C27.9735 10.5643 27.9648 10.565 27.9557 10.5657C27.9472 10.5663 27.9384 10.5669 27.9297 10.5674C27.9209 10.5679 27.9122 10.5684 27.9036 10.5687C27.8946 10.569 27.8858 10.5692 27.8776 10.5693L27.8735 10.5693H27.8516H27.8255H27.7995H27.7734H27.7474H27.7213H27.6953H27.6692H27.6432H27.6171H27.5911H27.565H27.539H27.513H27.4869H27.4609H27.4348H27.4088H27.3827H27.3567H27.3307H27.3046H27.2786H27.2525H27.2265H27.2004H27.1744H27.1483H27.1223H27.0962H27.0702H27.0441H27.0181H26.9921H26.966H26.94H26.9139H26.8879H26.8618H26.8358H26.8098H26.7837H26.7577H26.7316H26.7056H26.6795H26.6535H26.6274H26.6014H26.5753H26.5493H26.5232H26.4972H26.4712H26.4575V9.37866H26.4712H26.4972H26.5232H26.5493H26.5753H26.6014H26.6274H26.6535H26.6795H26.7056H26.7316H26.7577H26.7837H26.8098H26.8358H26.8618H26.8879H26.9139H26.94H26.966H26.9921H27.0181H27.0441H27.0702H27.0962H27.1223H27.1483H27.1744H27.2004H27.2265H27.2525H27.2786H27.3046H27.3307H27.3567H27.3827H27.4088H27.4348H27.4609H27.4869H27.513H27.539H27.565H27.5911H27.6171H27.6432H27.6692H27.6953H27.7213H27.7474H27.7734H27.7995H27.8255H27.8516H27.8776H27.8886L27.9036 9.37911C27.9122 9.37943 27.9209 9.37989 27.9297 9.3804C27.9384 9.38091 27.9472 9.3815 27.9557 9.38212C27.9648 9.38279 27.9735 9.38353 27.9818 9.38426C27.9913 9.3851 28.0001 9.38594 28.0078 9.38674C28.0157 9.38756 28.0225 9.38835 28.0275 9.38899L28.0339 9.39003C28.0426 9.39146 28.0513 9.39304 28.0599 9.39478C28.0686 9.39652 28.0773 9.39842 28.0859 9.40048C28.0947 9.40257 28.1034 9.40478 28.112 9.40717C28.1207 9.40959 28.1294 9.41218 28.138 9.41489C28.1468 9.41767 28.1555 9.42061 28.1641 9.4237C28.1728 9.42685 28.1815 9.43017 28.1901 9.43364C28.1989 9.4372 28.2076 9.4409 28.2162 9.44477C28.225 9.44874 28.2336 9.45287 28.2422 9.45717C28.251 9.46159 28.2597 9.46621 28.2683 9.47098C28.2771 9.4759 28.2858 9.48098 28.2943 9.48628C28.3031 9.49174 28.3118 9.49746 28.3204 9.50332C28.3292 9.50941 28.3379 9.51569 28.3464 9.52218C28.3553 9.52899 28.364 9.53602 28.3725 9.54325C28.3814 9.55086 28.39 9.55871 28.3985 9.56681C28.4075 9.57542 28.4161 9.58432 28.4245 9.59348C28.4336 9.60332 28.4422 9.61347 28.4506 9.62392C28.4597 9.63538 28.4684 9.64718 28.4766 9.65937C28.4859 9.67312 28.4946 9.68734 28.5027 9.702C28.5123 9.71947 28.521 9.7376 28.5287 9.75631C28.5393 9.78194 28.548 9.80868 28.5548 9.83652ZM31.7846 3.66321H31.7953L31.7953 15.8911C31.7953 15.9642 31.7915 16.0364 31.7846 16.1079C31.7785 16.1707 31.7698 16.2329 31.7585 16.2943C31.751 16.3356 31.7423 16.3765 31.7325 16.417C31.7245 16.45 31.7159 16.4827 31.7064 16.5152C31.6983 16.5432 31.6896 16.571 31.6804 16.5986C31.6721 16.6236 31.6635 16.6484 31.6543 16.673C31.646 16.6954 31.6373 16.7175 31.6283 16.7395C31.6199 16.7601 31.6112 16.7805 31.6022 16.8007C31.5938 16.8198 31.5851 16.8387 31.5762 16.8575C31.5677 16.8753 31.559 16.893 31.5501 16.9106C31.5417 16.9273 31.533 16.944 31.5241 16.9605C31.5156 16.9764 31.5069 16.9921 31.498 17.0078C31.4895 17.0228 31.4808 17.0377 31.472 17.0526C31.4635 17.0668 31.4548 17.0809 31.446 17.095C31.4374 17.1086 31.4287 17.1222 31.4199 17.1356C31.4113 17.1488 31.4027 17.1618 31.3939 17.1747C31.3853 17.1873 31.3766 17.1999 31.3678 17.2124C31.3592 17.2244 31.3505 17.2364 31.3417 17.2483C31.3332 17.2599 31.3245 17.2713 31.3157 17.2828C31.3071 17.2941 31.2984 17.3053 31.2896 17.3164C31.281 17.3272 31.2724 17.338 31.2636 17.3487C31.255 17.3592 31.2463 17.3695 31.2375 17.3798C31.2289 17.39 31.2203 17.4001 31.2115 17.4101C31.2029 17.4199 31.1942 17.4297 31.1854 17.4394C31.1768 17.4489 31.1681 17.4583 31.1594 17.4677C31.1507 17.477 31.1421 17.4863 31.1333 17.4954C31.1247 17.5044 31.116 17.5132 31.1073 17.522C31.0987 17.5307 31.09 17.5394 31.0812 17.548C31.0726 17.5565 31.064 17.565 31.0552 17.5733C31.0466 17.5816 31.0379 17.5896 31.0291 17.5978C31.0205 17.6058 31.0119 17.6139 31.0031 17.6219C30.9945 17.6296 30.9857 17.6372 30.977 17.6449C30.9684 17.6525 30.9597 17.6602 30.951 17.6677C30.9424 17.675 30.9337 17.6823 30.9249 17.6896C30.9163 17.6968 30.9076 17.704 30.8989 17.7111C30.8902 17.7181 30.8816 17.7251 30.8728 17.7321C30.8642 17.7389 30.8555 17.7457 30.8468 17.7524C30.8381 17.7591 30.8295 17.7658 30.8207 17.7724C30.8121 17.7789 30.8034 17.7853 30.7947 17.7917C30.786 17.798 30.7774 17.8044 30.7686 17.8107C30.76 17.8168 30.7513 17.8229 30.7426 17.829C30.7339 17.835 30.7253 17.8411 30.7165 17.8471C30.7079 17.8529 30.6992 17.8587 30.6905 17.8645C30.6818 17.8702 30.6732 17.876 30.6644 17.8817C30.6558 17.8873 30.6471 17.8927 30.6384 17.8982C30.6297 17.9037 30.6211 17.9092 30.6123 17.9146C30.6037 17.9199 30.595 17.9251 30.5863 17.9304C30.5776 17.9356 30.569 17.9408 30.5602 17.9459C30.5516 17.951 30.5429 17.9559 30.5342 17.9609C30.5255 17.9659 30.5169 17.9708 30.5081 17.9757C30.4995 17.9805 30.4908 17.9852 30.4821 17.99L30.456 18.0039C30.4474 18.0085 30.4387 18.0131 30.43 18.0176C30.4214 18.0221 30.4126 18.0264 30.4039 18.0308C30.3953 18.0352 30.3866 18.0396 30.3779 18.0438C30.3693 18.0481 30.3605 18.0521 30.3518 18.0563C30.3431 18.0604 30.3345 18.0647 30.3258 18.0688C30.3172 18.0728 30.3084 18.0766 30.2997 18.0805C30.2911 18.0844 30.2824 18.0884 30.2737 18.0922C30.265 18.096 30.2563 18.0997 30.2476 18.1035L30.2216 18.1145L30.1955 18.1252C30.1869 18.1287 30.1782 18.1321 30.1695 18.1355C30.1608 18.1389 30.1522 18.1424 30.1434 18.1458C30.1348 18.1491 30.1261 18.1522 30.1174 18.1554C30.1087 18.1586 30.1001 18.1619 30.0913 18.165C30.0827 18.1682 30.074 18.1711 30.0653 18.1741C30.0566 18.1772 30.048 18.1802 30.0392 18.1831L30.0132 18.1918C30.0045 18.1946 29.9958 18.1974 29.9871 18.2001C29.9784 18.2029 29.9698 18.2057 29.9611 18.2084C29.9524 18.2111 29.9437 18.2135 29.935 18.2161L29.909 18.2237C29.9003 18.2262 29.8916 18.2286 29.8829 18.231L29.8569 18.238C29.8482 18.2403 29.8396 18.2427 29.8308 18.2449C29.8222 18.2472 29.8135 18.2492 29.8048 18.2513C29.7961 18.2535 29.7875 18.2557 29.7787 18.2577L29.7527 18.2637L29.7266 18.2694L29.7006 18.2751C29.6919 18.2769 29.6832 18.2785 29.6745 18.2802C29.6659 18.2819 29.6572 18.2837 29.6485 18.2853L29.6224 18.2901L29.5964 18.2946C29.5877 18.296 29.579 18.2976 29.5703 18.299C29.5617 18.3004 29.553 18.3016 29.5443 18.3029L29.5182 18.3068L29.4922 18.3104L29.4661 18.3137C29.4574 18.3148 29.4488 18.316 29.4401 18.317C29.4314 18.318 29.4227 18.3188 29.414 18.3197C29.4054 18.3206 29.3967 18.3216 29.388 18.3224C29.3793 18.3232 29.3706 18.3241 29.3619 18.3249C29.3533 18.3256 29.3446 18.3263 29.3359 18.327C29.3272 18.3276 29.3185 18.3284 29.3098 18.3291C29.3012 18.3297 29.2925 18.3301 29.2838 18.3307L29.2577 18.3322C29.249 18.3327 29.2404 18.3332 29.2317 18.3336C29.223 18.334 29.2143 18.3342 29.2056 18.3345L29.1796 18.3354L29.1535 18.336C29.1449 18.3362 29.1362 18.3362 29.1275 18.3363L29.1014 18.3366L29.096 18.3367H29.0754H29.0493H29.0233H28.9972H28.9712H28.9451H28.9191H28.893H28.867H28.8409H28.8149H28.7888H28.7628H28.7367H28.7107H28.6846H28.6586H28.6325H28.6065H28.5804H28.5544H28.5283H28.5023H28.4762H28.4502H28.4241H28.3981H28.372H28.346H28.3199H28.2939H28.2678H28.2418H28.2157H28.1897H28.1636H28.1376H28.1115H28.0855H28.0594H28.0334H28.0073H27.9813H27.9552H27.9292H27.9031H27.8771H27.851H27.825H27.7989H27.7729H27.7468H27.7208H27.6947H27.6687H27.6426H27.6166H27.5905H27.5645H27.5384H27.5124H27.4863H27.4603H27.4342H27.4082H27.3821H27.3561H27.33H27.304H27.2779H27.2519H27.2258H27.1998H27.1737H27.1477H27.1216H27.0956H27.0695H27.0435H27.0174H26.9914H26.9653H26.9393H26.9132H26.8872H26.8611H26.8351H26.809H26.783H26.7569H26.7309H26.7048H26.6788H26.6527H26.6267H26.6006H26.5746H26.5485H26.5225H26.4964H26.4704H26.4443H26.4183H26.3922H26.3662H26.3401H26.314H26.288H26.262H26.2359H26.2099H26.1838H26.1578H26.1317H26.1057H26.0796H26.0536H26.0275H26.0015H25.9754H25.9494H25.9233H25.8973H25.8712H25.8452H25.8191H25.7931H25.767H25.741H25.7149H25.6889H25.6628H25.6367H25.6107H25.5846H25.5586H25.5325H25.5065H25.4804H25.4544H25.4284H25.4023H25.3763H25.3502H25.3242H25.2981H25.2721H25.246H25.22H25.1939H25.1377V13.3509H25.1939H25.22H25.246H25.2721H25.2981H25.3242H25.3502H25.3763H25.4023H25.4284H25.4544H25.4804H25.5065H25.5325H25.5586H25.5846H25.6107H25.6367H25.6628H25.6889H25.7149H25.741H25.767H25.7931H25.8191H25.8452H25.8712H25.8973H25.9233H25.9494H25.9754H26.0015H26.0275H26.0536H26.0796H26.1057H26.1317H26.1578H26.1838H26.2099H26.2359H26.262H26.288H26.314H26.3401H26.3662H26.3922H26.4183H26.4443H26.4704H26.4964H26.5225H26.5485H26.5746H26.6006H26.6267H26.6527H26.6788H26.7048H26.7309H26.7569H26.783H26.809H26.8351H26.8611H26.8872H26.9132H26.9393H26.9653H26.9914H27.0174H27.0435H27.0695H27.0956H27.1216H27.1477H27.1737H27.1998H27.2258H27.2519H27.2779H27.304H27.33H27.3561H27.3821H27.4082H27.4342H27.4603H27.4863H27.5124H27.5384H27.5645H27.5905H27.6166H27.6426H27.6687H27.6947H27.7208H27.7468H27.7729H27.7989H27.825H27.851H27.8771H27.9031H27.9292H27.9552H27.9813H28.0073H28.0334H28.0594H28.0855H28.1115H28.1376H28.1636H28.1897H28.2157H28.2418H28.2678H28.2939H28.3199H28.346H28.372H28.3981H28.4241H28.4502H28.4762H28.5023H28.5283H28.5544H28.5804H28.6065H28.6325H28.6586H28.6846H28.7107H28.7367H28.7628H28.7888H28.8149H28.8409H28.867H28.893H28.9191H28.9451H28.9712H28.9972H29.0233H29.0493H29.0754H29.1014H29.1275H29.1535H29.1796H29.2056H29.2317H29.2577H29.2838H29.3098H29.3236L29.3359 13.3508L29.3619 13.3506L29.388 13.3502C29.3967 13.35 29.4054 13.3498 29.414 13.3496C29.4228 13.3493 29.4314 13.3489 29.4401 13.3486L29.4661 13.3475L29.4922 13.346L29.5182 13.3444L29.5443 13.3426L29.5703 13.3404C29.579 13.3397 29.5877 13.3389 29.5964 13.3381C29.6051 13.3373 29.6138 13.3364 29.6224 13.3354L29.6485 13.3326C29.6572 13.3315 29.6659 13.3306 29.6745 13.3295C29.6833 13.3284 29.6919 13.3272 29.7006 13.326C29.7093 13.3248 29.718 13.3236 29.7266 13.3224L29.7527 13.3184L29.7787 13.3141C29.7874 13.3127 29.7962 13.3112 29.8048 13.3097C29.8135 13.3081 29.8222 13.3064 29.8308 13.3048L29.8569 13.2997C29.8656 13.2979 29.8743 13.2962 29.8829 13.2943C29.8917 13.2925 29.9003 13.2905 29.909 13.2885C29.9177 13.2866 29.9264 13.2846 29.935 13.2825C29.9437 13.2805 29.9524 13.2784 29.9611 13.2762C29.9698 13.274 29.9785 13.2718 29.9871 13.2695C29.9958 13.2672 30.0045 13.2649 30.0132 13.2625L30.0392 13.2551C30.048 13.2526 30.0566 13.2499 30.0653 13.2473C30.074 13.2446 30.0827 13.242 30.0913 13.2392C30.1001 13.2364 30.1088 13.2337 30.1174 13.2308C30.1261 13.2279 30.1348 13.2248 30.1434 13.2218C30.1522 13.2187 30.1608 13.2157 30.1695 13.2125C30.1782 13.2093 30.1869 13.2061 30.1955 13.2029C30.2043 13.1995 30.2129 13.1961 30.2216 13.1927C30.2303 13.1892 30.239 13.1856 30.2476 13.182C30.2564 13.1784 30.2651 13.1747 30.2737 13.171C30.2824 13.1672 30.2911 13.1634 30.2997 13.1595C30.3085 13.1556 30.3171 13.1515 30.3258 13.1474C30.3345 13.1433 30.3432 13.1391 30.3518 13.1348C30.3606 13.1305 30.3693 13.1261 30.3779 13.1217C30.3866 13.1172 30.3953 13.1126 30.4039 13.108C30.4127 13.1033 30.4214 13.0985 30.43 13.0937C30.4388 13.0888 30.4474 13.0838 30.456 13.0787C30.4648 13.0735 30.4735 13.0683 30.4821 13.063C30.4909 13.0576 30.4995 13.0521 30.5081 13.0466C30.5169 13.0409 30.5256 13.0352 30.5342 13.0294C30.543 13.0235 30.5517 13.0175 30.5602 13.0115C30.569 13.0052 30.5777 12.999 30.5863 12.9926C30.5951 12.9861 30.6038 12.9795 30.6123 12.9728C30.6211 12.966 30.6298 12.959 30.6384 12.952C30.6472 12.9448 30.6559 12.9375 30.6644 12.9301C30.6733 12.9224 30.6819 12.9147 30.6905 12.9069C30.6993 12.8988 30.708 12.8906 30.7165 12.8823C30.7254 12.8737 30.7341 12.865 30.7426 12.8562C30.7514 12.8471 30.7601 12.8379 30.7686 12.8285C30.7775 12.8187 30.7862 12.8088 30.7947 12.7988C30.8036 12.7884 30.8123 12.7778 30.8207 12.7671C30.8297 12.7557 30.8383 12.7441 30.8468 12.7324C30.8557 12.72 30.8644 12.7074 30.8728 12.6947C30.8819 12.681 30.8905 12.6671 30.8989 12.6531C30.908 12.6378 30.9167 12.6224 30.9249 12.6066C30.9342 12.5891 30.9428 12.5713 30.951 12.5532C30.9604 12.5324 30.9691 12.5114 30.977 12.49C30.9868 12.4636 30.9955 12.4367 31.0031 12.4094C31.0142 12.3694 31.0229 12.3283 31.0291 12.2862C31.0367 12.2352 31.0407 12.1827 31.0407 12.1288C31.0407 12.0764 31.0367 12.0254 31.0291 11.9759C31.0229 11.9352 31.0142 11.8955 31.0031 11.8569C30.9955 11.8306 30.9868 11.8048 30.977 11.7795C30.9691 11.7587 30.9604 11.7383 30.951 11.7182C30.9428 11.7008 30.9341 11.6837 30.9249 11.6668C30.9167 11.6516 30.908 11.6367 30.8989 11.6219C30.8905 11.6083 30.8819 11.5949 30.8728 11.5817C30.8645 11.5694 30.8557 11.5573 30.8468 11.5454C30.8383 11.5341 30.8297 11.523 30.8207 11.512C30.8123 11.5016 30.8036 11.4914 30.7947 11.4813C30.7862 11.4717 30.7775 11.4621 30.7686 11.4527C30.7601 11.4437 30.7515 11.4347 30.7426 11.4259C30.7341 11.4174 30.7254 11.409 30.7165 11.4007C30.708 11.3927 30.6993 11.3849 30.6905 11.3771C30.6819 11.3695 30.6732 11.3621 30.6644 11.3547C30.6559 11.3476 30.6472 11.3405 30.6384 11.3336C30.6298 11.3268 30.6211 11.3201 30.6123 11.3135C30.6038 11.307 30.5951 11.3006 30.5863 11.2943C30.5777 11.2882 30.569 11.2821 30.5602 11.2761C30.5516 11.2702 30.543 11.2645 30.5342 11.2587C30.5256 11.2531 30.5169 11.2476 30.5081 11.2421C30.4995 11.2368 30.4909 11.2315 30.4821 11.2263C30.4735 11.2212 30.4648 11.2161 30.456 11.2111C30.4474 11.2062 30.4388 11.2014 30.43 11.1966C30.4214 11.1919 30.4127 11.1873 30.4039 11.1827C30.3953 11.1783 30.3866 11.1738 30.3779 11.1695C30.3693 11.1652 30.3606 11.1609 30.3518 11.1568C30.3432 11.1526 30.3345 11.1486 30.3258 11.1445C30.3172 11.1406 30.3085 11.1367 30.2997 11.1328C30.2911 11.129 30.2824 11.1252 30.2737 11.1215C30.2651 11.1179 30.2564 11.1144 30.2476 11.1108C30.239 11.1074 30.2303 11.1039 30.2216 11.1005C30.2129 11.0972 30.2043 11.0939 30.1955 11.0907C30.1869 11.0875 30.1782 11.0842 30.1695 11.0811C30.1608 11.0781 30.1522 11.075 30.1434 11.0721C30.1348 11.0691 30.1261 11.0663 30.1174 11.0634C30.1087 11.0606 30.1001 11.0579 30.0913 11.0551C30.0827 11.0524 30.074 11.0498 30.0653 11.0471C30.0566 11.0446 30.048 11.042 30.0392 11.0395C30.0306 11.0371 30.0219 11.0347 30.0132 11.0323L29.9871 11.0254C29.9785 11.0231 29.9698 11.0209 29.9611 11.0187C29.9524 11.0166 29.9437 11.0146 29.935 11.0125C29.9264 11.0105 29.9177 11.0085 29.909 11.0066C29.9003 11.0046 29.8916 11.0027 29.8829 11.0009C29.8743 10.999 29.8656 10.9973 29.8569 10.9955C29.8483 10.9938 29.8396 10.9921 29.8308 10.9905C29.8222 10.9888 29.8135 10.9872 29.8048 10.9856L29.7787 10.9811L29.7527 10.9769C29.744 10.9755 29.7354 10.9742 29.7266 10.9729L29.7006 10.9692C29.6919 10.968 29.6832 10.9669 29.6745 10.9658L29.6485 10.9626L29.6224 10.9596L29.5964 10.9569L29.5703 10.9544L29.5443 10.9522L29.5182 10.9503L29.4942 10.9486L29.4942 10.9203L29.5182 10.9169L29.5443 10.913C29.553 10.9117 29.5617 10.9103 29.5703 10.9089L29.5964 10.9044C29.6051 10.9028 29.6138 10.9012 29.6224 10.8995L29.6485 10.8944C29.6572 10.8926 29.6659 10.8908 29.6745 10.8889C29.6833 10.887 29.6919 10.885 29.7006 10.883C29.7093 10.881 29.718 10.8789 29.7266 10.8767C29.7354 10.8746 29.7441 10.8724 29.7527 10.8702C29.7614 10.8679 29.7701 10.8656 29.7787 10.8632C29.7875 10.8608 29.7962 10.8584 29.8048 10.8559C29.8135 10.8533 29.8222 10.8507 29.8308 10.8481C29.8396 10.8454 29.8483 10.8426 29.8569 10.8399C29.8656 10.837 29.8743 10.8342 29.8829 10.8312C29.8917 10.8283 29.9004 10.8253 29.909 10.8222C29.9177 10.8191 29.9264 10.8159 29.935 10.8127C29.9438 10.8094 29.9525 10.806 29.9611 10.8026C29.9699 10.7992 29.9785 10.7957 29.9871 10.7921C29.9959 10.7885 30.0046 10.7847 30.0132 10.781C30.0219 10.7772 30.0306 10.7733 30.0392 10.7693C30.048 10.7653 30.0567 10.7613 30.0653 10.7571C30.074 10.7529 30.0827 10.7486 30.0913 10.7443C30.1001 10.7399 30.1088 10.7354 30.1174 10.7309C30.1261 10.7262 30.1348 10.7215 30.1434 10.7168C30.1522 10.7119 30.1609 10.707 30.1695 10.7019C30.1783 10.6968 30.1869 10.6916 30.1955 10.6864C30.2043 10.681 30.213 10.6755 30.2216 10.67C30.2304 10.6643 30.2391 10.6586 30.2476 10.6528C30.2564 10.6468 30.2651 10.6408 30.2737 10.6346C30.2825 10.6283 30.2912 10.622 30.2997 10.6155C30.3085 10.6089 30.3172 10.6021 30.3258 10.5953C30.3346 10.5883 30.3433 10.5811 30.3518 10.5739C30.3607 10.5665 30.3694 10.5589 30.3779 10.5513C30.3867 10.5434 30.3954 10.5354 30.4039 10.5273C30.4128 10.5189 30.4215 10.5103 30.43 10.5017C30.4389 10.4927 30.4475 10.4836 30.456 10.4743C30.4649 10.4647 30.4736 10.4549 30.4821 10.445C30.491 10.4346 30.4997 10.424 30.5081 10.4134C30.5171 10.402 30.5258 10.3906 30.5342 10.379C30.5432 10.3666 30.5519 10.3541 30.5602 10.3415C30.5693 10.3278 30.578 10.3139 30.5863 10.2999C30.5954 10.2844 30.6041 10.2688 30.6123 10.253C30.6216 10.2353 30.6303 10.2172 30.6384 10.1991C30.6478 10.1778 30.6565 10.1563 30.6644 10.1346C30.6744 10.1072 30.6831 10.0794 30.6905 10.0512C30.7025 10.0055 30.7112 9.95884 30.7165 9.91138C30.7208 9.87393 30.723 9.83598 30.723 9.79765C30.723 9.75718 30.7208 9.71772 30.7165 9.67923C30.7112 9.63005 30.7024 9.58255 30.6905 9.53669C30.683 9.50805 30.6743 9.48005 30.6644 9.45274C30.6565 9.43089 30.6478 9.40946 30.6384 9.38845C30.6302 9.37036 30.6216 9.35257 30.6123 9.33512C30.6041 9.31955 30.5954 9.30423 30.5863 9.28917C30.578 9.27537 30.5693 9.2618 30.5602 9.24841C30.5518 9.23599 30.5432 9.22374 30.5342 9.21169C30.5258 9.2004 30.5171 9.18929 30.5081 9.17833C30.4997 9.16797 30.491 9.15773 30.4821 9.14766C30.4736 9.13803 30.4649 9.12851 30.456 9.11913C30.4475 9.11023 30.4388 9.10149 30.43 9.09282C30.4215 9.08449 30.4128 9.07627 30.4039 9.06815C30.3954 9.06032 30.3867 9.05262 30.3779 9.04501C30.3693 9.03763 30.3607 9.03033 30.3518 9.02317C30.3433 9.01623 30.3346 9.00936 30.3258 9.00259C30.3172 8.99602 30.3085 8.98952 30.2997 8.98312C30.2912 8.9769 30.2825 8.97074 30.2737 8.9647C30.2651 8.95879 30.2564 8.95298 30.2476 8.94724C30.239 8.94163 30.2304 8.93611 30.2216 8.93065C30.213 8.92533 30.2043 8.92009 30.1955 8.91491C30.1869 8.90982 30.1782 8.90481 30.1695 8.89988C30.1609 8.89505 30.1522 8.89029 30.1434 8.8856C30.1348 8.88098 30.1261 8.87644 30.1174 8.87196C30.1088 8.86756 30.1001 8.86322 30.0913 8.85895C30.0827 8.85475 30.074 8.85064 30.0653 8.84655C30.0567 8.84254 30.048 8.83859 30.0392 8.83469C30.0306 8.83086 30.0219 8.82704 30.0132 8.82334C30.0046 8.81969 29.9959 8.81607 29.9871 8.81255C29.9785 8.80906 29.9698 8.8057 29.9611 8.80231C29.9525 8.79899 29.9437 8.79572 29.935 8.79249C29.9264 8.78932 29.9177 8.78619 29.909 8.78312C29.9003 8.78009 29.8917 8.77708 29.8829 8.77414C29.8743 8.77125 29.8656 8.76841 29.8569 8.76561C29.8483 8.76285 29.8396 8.76017 29.8308 8.75751C29.8222 8.75489 29.8135 8.75233 29.8048 8.7498C29.7962 8.7473 29.7875 8.74483 29.7787 8.74243C29.7701 8.74004 29.7614 8.73765 29.7527 8.73537C29.7441 8.73312 29.7354 8.73094 29.7266 8.72879C29.718 8.72664 29.7093 8.72457 29.7006 8.72251L29.6745 8.71651C29.6659 8.71457 29.6572 8.71267 29.6485 8.71083C29.6398 8.70901 29.6312 8.70725 29.6224 8.70553L29.5964 8.7005C29.5877 8.69888 29.5791 8.69724 29.5703 8.69571C29.5617 8.69418 29.553 8.69277 29.5443 8.69133L29.5182 8.68718C29.5096 8.68585 29.5009 8.6845 29.4922 8.68325L29.4661 8.67967L29.4401 8.67634L29.414 8.67321L29.388 8.67041L29.3619 8.66787L29.3359 8.6655L29.3098 8.66343L29.2838 8.66161L29.2577 8.65993L29.2317 8.65858L29.2213 8.65805L29.2056 8.65717L29.1796 8.65578L29.1535 8.65447L29.1275 8.65324L29.1014 8.6521L29.0754 8.65108L29.0493 8.65022L29.0233 8.6495L28.9972 8.64897L28.9712 8.64866L28.9568 8.64862H28.9451H28.9191H28.893H28.867H28.8409H28.8149H28.7888H28.7628H28.7367H28.7107H28.6846H28.6586H28.6325H28.6065H28.5804H28.5544H28.5283H28.5023H28.4762H28.4502H28.4241H28.3981H28.372H28.346H28.3199H28.2939H28.2678H28.2418H28.2157H28.1897H28.1636H28.1376H28.1115H28.0855H28.0594H28.0334H28.0073H27.9813H27.9552H27.9292H27.9031H27.8771H27.851H27.825H27.7989H27.7729H27.7468H27.7208H27.6947H27.6687H27.6426H27.6166H27.5905H27.5645H27.5384H27.5124H27.4863H27.4603H27.4342H27.4082H27.3821H27.3561H27.33H27.304H27.2779H27.2519H27.2258H27.1998H27.1737H27.1477H27.1216H27.0956H27.0695H27.0435H27.0174H26.9914H26.9653H26.9393H26.9132H26.8872H26.8611H26.8351H26.809H26.783H26.7569H26.7309H26.7048H26.6788H26.6527H26.6267H26.6006H26.5746H26.5485H26.5225H26.4964H26.4704H26.4443H26.4183H26.3922H26.3662H26.3401H26.314H26.288H26.262H26.2359H26.2099H26.1838H26.1578H26.1317H26.1057H26.0796H26.0536H26.0275H26.0015H25.9754H25.9494H25.9233H25.8973H25.8712H25.8452H25.8191H25.7931H25.767H25.741H25.7149H25.6889H25.6628H25.6367H25.6107H25.5846H25.5586H25.5325H25.5065H25.4804H25.4544H25.4284H25.4023H25.3763H25.3502H25.3242H25.2981H25.2721H25.246H25.22H25.1939H25.1377V6.10899C25.1377 5.93814 25.1571 5.77141 25.1939 5.61044C25.2018 5.57597 25.2105 5.54179 25.22 5.50788C25.2281 5.47887 25.2368 5.45007 25.246 5.42149C25.2542 5.39596 25.2629 5.3706 25.2721 5.34542C25.2804 5.32242 25.289 5.29953 25.2981 5.27683C25.3065 5.25578 25.3151 5.23485 25.3242 5.21407C25.3326 5.19466 25.3413 5.17535 25.3502 5.1562C25.3587 5.13812 25.3673 5.12012 25.3763 5.10226C25.3847 5.0853 25.3934 5.06845 25.4023 5.05171C25.4108 5.03572 25.4195 5.01986 25.4284 5.00407C25.4369 4.98889 25.4456 4.97382 25.4544 4.95882C25.4629 4.94436 25.4716 4.93 25.4804 4.91572C25.489 4.90187 25.4977 4.88813 25.5065 4.87446C25.5151 4.86119 25.5237 4.84799 25.5325 4.8349C25.5411 4.8222 25.5498 4.8096 25.5586 4.79706C25.5671 4.78491 25.5759 4.77288 25.5846 4.76089C25.5932 4.74915 25.6019 4.73745 25.6107 4.72585C25.6193 4.71448 25.6279 4.70312 25.6367 4.69189C25.6453 4.68101 25.6541 4.67027 25.6628 4.65953C25.6714 4.64896 25.6801 4.63848 25.6889 4.62805C25.6975 4.61778 25.7061 4.60747 25.7149 4.59733C25.7235 4.58747 25.7322 4.57777 25.741 4.56803C25.7496 4.55842 25.7582 4.54889 25.767 4.53942C25.7756 4.53007 25.7843 4.52072 25.7931 4.51149C25.8016 4.50249 25.8104 4.49364 25.8191 4.48476C25.8278 4.47596 25.8364 4.46713 25.8452 4.45845C25.8538 4.44994 25.8625 4.44151 25.8712 4.43309C25.8798 4.4248 25.8885 4.41656 25.8973 4.40836C25.9059 4.40028 25.9145 4.3922 25.9233 4.38422C25.9319 4.37638 25.9406 4.36865 25.9494 4.36092C25.958 4.35323 25.9666 4.34547 25.9754 4.33789C25.984 4.33048 25.9928 4.32324 26.0015 4.31592C26.0101 4.30865 26.0188 4.30135 26.0275 4.29417C26.0361 4.28711 26.0449 4.28018 26.0536 4.27323C26.0622 4.26633 26.0709 4.25942 26.0796 4.25261C26.0883 4.2459 26.0969 4.23929 26.1057 4.23268C26.1143 4.22612 26.123 4.21959 26.1317 4.21313C26.1404 4.20674 26.149 4.20042 26.1578 4.19414L26.1838 4.17557L26.2099 4.15749C26.2185 4.15157 26.2272 4.14568 26.2359 4.13985C26.2445 4.13408 26.2532 4.12832 26.262 4.12263L26.288 4.10586C26.2966 4.10037 26.3053 4.09491 26.314 4.08951L26.3401 4.07352L26.3662 4.05797C26.3748 4.05287 26.3835 4.04778 26.3922 4.04277L26.4183 4.02802C26.4269 4.02315 26.4356 4.01828 26.4443 4.0135C26.4529 4.00877 26.4617 4.00417 26.4704 3.99953C26.479 3.9949 26.4877 3.99022 26.4964 3.98568C26.505 3.9812 26.5138 3.97688 26.5225 3.97248C26.5311 3.96807 26.5398 3.96359 26.5485 3.95929C26.5571 3.95505 26.5659 3.95094 26.5746 3.94677C26.5832 3.9426 26.5919 3.93842 26.6006 3.93433C26.6092 3.93028 26.618 3.92634 26.6267 3.92239C26.6353 3.91846 26.644 3.91451 26.6527 3.91065L26.6788 3.89925C26.6874 3.89551 26.6961 3.89187 26.7048 3.88821C26.7135 3.88458 26.7221 3.88088 26.7309 3.87732C26.7395 3.8738 26.7482 3.87043 26.7569 3.86699C26.7656 3.86354 26.7742 3.86004 26.783 3.85668C26.7916 3.85335 26.8003 3.85018 26.809 3.84693C26.8177 3.84371 26.8263 3.84044 26.8351 3.83729L26.8611 3.828L26.8872 3.81902C26.8959 3.81604 26.9045 3.81303 26.9132 3.81015C26.9219 3.8073 26.9306 3.80462 26.9393 3.80184C26.948 3.79906 26.9566 3.79622 26.9653 3.79352C26.974 3.79084 26.9827 3.78832 26.9914 3.78572L27.0174 3.77807C27.0261 3.77556 27.0348 3.77304 27.0435 3.77061C27.0521 3.76821 27.0608 3.76594 27.0695 3.76361C27.0782 3.76126 27.0868 3.75884 27.0956 3.75659C27.1042 3.75436 27.1129 3.75228 27.1216 3.75013C27.1303 3.74798 27.1389 3.74581 27.1477 3.74373L27.1737 3.73763C27.1824 3.73565 27.1911 3.73378 27.1998 3.73188C27.2084 3.72998 27.2171 3.72795 27.2258 3.72613C27.2344 3.72433 27.2432 3.72268 27.2519 3.72094L27.2779 3.7158L27.304 3.71092C27.3126 3.70936 27.3213 3.70789 27.33 3.70641C27.3387 3.7049 27.3473 3.70329 27.3561 3.70187C27.3647 3.70044 27.3734 3.69923 27.3821 3.6979L27.4082 3.69398C27.4168 3.69273 27.4255 3.69144 27.4342 3.69027C27.4429 3.68909 27.4516 3.68805 27.4603 3.68696C27.469 3.68586 27.4776 3.68467 27.4863 3.68365C27.495 3.68264 27.5037 3.68174 27.5124 3.6808L27.5384 3.6781C27.5471 3.67724 27.5558 3.67628 27.5645 3.67549C27.5731 3.67471 27.5818 3.67411 27.5905 3.6734L27.6166 3.67131L27.6426 3.66953C27.6513 3.66896 27.66 3.66851 27.6687 3.66802C27.6773 3.66755 27.686 3.66694 27.6947 3.66653C27.7034 3.66612 27.7121 3.66589 27.7208 3.66556L27.7468 3.66468C27.7555 3.66442 27.7642 3.66409 27.7729 3.66391C27.7815 3.66374 27.7902 3.66372 27.7989 3.6636C27.8076 3.66348 27.8163 3.66334 27.825 3.66331L27.8315 3.66323H27.851H27.8771H27.9031H27.9292H27.9552H27.9813H28.0073H28.0334H28.0594H28.0855H28.1115H28.1376H28.1636H28.1897H28.2157H28.2418H28.2678H28.2939H28.3199H28.346H28.372H28.3981H28.4241H28.4502H28.4762H28.5023H28.5283H28.5544H28.5804H28.6065H28.6325H28.6586H28.6846H28.7107H28.7367H28.7628H28.7888H28.8149H28.8409H28.867H28.893H28.9191H28.9451H28.9712H28.9972H29.0233H29.0493H29.0754H29.1014H29.1275H29.1535H29.1796H29.2056H29.2317H29.2577H29.2838H29.3098H29.3359H29.3619H29.388H29.414H29.4401H29.4661H29.4922H29.5182H29.5443H29.5703H29.5964H29.6224H29.6485H29.6745H29.7006H29.7266H29.7527H29.7787H29.8048H29.8308H29.8569H29.8829H29.909H29.935H29.9611H29.9871H30.0132H30.0392H30.0653H30.0913H30.1174H30.1434H30.1695H30.1955H30.2216H30.2476H30.2737H30.2997H30.3258H30.3518H30.3779H30.4039H30.43H30.456H30.4821H30.5081H30.5342H30.5602H30.5863H30.6123H30.6384H30.6644H30.6905H30.7165H30.7426H30.7686H30.7947H30.8207H30.8468H30.8728H30.8989H30.9249H30.951H30.977H31.0031H31.0291H31.0552H31.0812H31.1073H31.1333H31.1594H31.1854H31.2115H31.2375H31.2636H31.2896H31.3157H31.3417H31.3678H31.3939H31.4199H31.446H31.472H31.498H31.5241H31.5501H31.5762H31.6022H31.6283H31.6543H31.6804H31.7064H31.7325H31.7585H31.7846V3.66321Z" fill="#54B230"/>
<path fill-rule="evenodd" clip-rule="evenodd" d="M10.2046 12.1488V6.10897C10.2046 5.93861 10.2238 5.77231 10.2604 5.61177C10.2683 5.5773 10.277 5.54314 10.2865 5.50921C10.2945 5.48016 10.3032 5.45134 10.3125 5.42272C10.3207 5.39721 10.3294 5.37189 10.3385 5.34673C10.3468 5.32371 10.3554 5.30078 10.3645 5.27804C10.3729 5.25701 10.3815 5.2361 10.3905 5.21534C10.3989 5.19593 10.4075 5.17659 10.4165 5.15741C10.4249 5.13934 10.4336 5.12138 10.4425 5.10353C10.4509 5.08657 10.4596 5.06975 10.4685 5.053C10.4769 5.037 10.4857 5.02111 10.4945 5.0053C10.503 4.99012 10.5117 4.97506 10.5205 4.96007C10.529 4.94561 10.5377 4.93125 10.5465 4.91697C10.555 4.90314 10.5637 4.88939 10.5725 4.87573C10.581 4.86247 10.5897 4.84924 10.5985 4.83613C10.607 4.82345 10.6157 4.81087 10.6245 4.79835C10.633 4.78622 10.6418 4.77417 10.6505 4.76218C10.6591 4.75044 10.6677 4.73874 10.6765 4.72714C10.6851 4.71575 10.6937 4.70439 10.7025 4.69314C10.711 4.68228 10.7198 4.67156 10.7285 4.66082C10.7371 4.65025 10.7458 4.63977 10.7545 4.62934C10.7631 4.61909 10.7717 4.60876 10.7805 4.59862C10.7891 4.58878 10.7978 4.5791 10.8065 4.56938C10.8151 4.55977 10.8238 4.5502 10.8325 4.54071C10.8412 4.53138 10.8498 4.52207 10.8585 4.51286C10.8671 4.50384 10.8758 4.49497 10.8846 4.48607C10.8932 4.47725 10.9018 4.46845 10.9105 4.45976C10.9191 4.45125 10.9278 4.44286 10.9365 4.43446C10.9452 4.42615 10.9538 4.41791 10.9626 4.40971C10.9712 4.40163 10.9798 4.39355 10.9886 4.38557C10.9971 4.37773 11.0059 4.37 11.0146 4.36227C11.0232 4.35458 11.0318 4.34683 11.0406 4.33926C11.0491 4.33185 11.0579 4.32461 11.0666 4.31729C11.0752 4.31 11.0838 4.30268 11.0926 4.2955C11.1012 4.28846 11.1099 4.28155 11.1186 4.2746C11.1272 4.2677 11.1358 4.26077 11.1446 4.25396C11.1532 4.24725 11.1619 4.24066 11.1706 4.23405C11.1792 4.22749 11.1879 4.22094 11.1966 4.21448C11.2052 4.20811 11.2139 4.20179 11.2226 4.19549C11.2312 4.18925 11.2399 4.18306 11.2486 4.17692C11.2572 4.17084 11.2659 4.16483 11.2746 4.15884C11.2832 4.15292 11.2919 4.14701 11.3006 4.14118L11.3266 4.124C11.3352 4.11835 11.3439 4.11273 11.3526 4.10718C11.3612 4.10168 11.3699 4.09624 11.3786 4.09084C11.3873 4.08546 11.3959 4.08012 11.4046 4.07484C11.4132 4.06961 11.4219 4.06447 11.4306 4.05932C11.4393 4.05422 11.4479 4.04907 11.4566 4.04404C11.4652 4.03907 11.4739 4.03422 11.4826 4.02933C11.4913 4.02446 11.4999 4.01953 11.5086 4.01475C11.5172 4.01004 11.526 4.00546 11.5346 4.00082C11.5433 3.99619 11.5519 3.99147 11.5606 3.98691C11.5692 3.98243 11.578 3.97815 11.5866 3.97375C11.5953 3.96935 11.6039 3.96489 11.6127 3.96056C11.6213 3.9563 11.63 3.95219 11.6387 3.94802C11.6473 3.94385 11.6559 3.93967 11.6646 3.93558C11.6733 3.93153 11.682 3.92756 11.6907 3.92359L11.7167 3.91189C11.7253 3.90803 11.734 3.90418 11.7427 3.90042C11.7513 3.89669 11.76 3.89307 11.7687 3.88941C11.7774 3.88575 11.7859 3.88201 11.7947 3.87845C11.8033 3.87491 11.812 3.87158 11.8207 3.86814C11.8293 3.8647 11.838 3.8612 11.8467 3.85783C11.8553 3.85451 11.864 3.8513 11.8727 3.84805L11.8987 3.83842L11.9247 3.82907L11.9507 3.82011C11.9594 3.81714 11.968 3.81407 11.9767 3.81117C11.9853 3.80831 11.9941 3.80565 12.0027 3.80288C12.0114 3.8001 12.02 3.79728 12.0287 3.79458L12.0547 3.7867L12.0807 3.77905C12.0894 3.77654 12.098 3.77398 12.1067 3.77155C12.1153 3.76915 12.1241 3.76686 12.1327 3.76453C12.1414 3.76218 12.15 3.7598 12.1587 3.75753C12.1674 3.75528 12.1761 3.75318 12.1847 3.75101L12.2107 3.74461C12.2194 3.74254 12.228 3.74043 12.2367 3.73843C12.2454 3.73644 12.2541 3.73462 12.2627 3.7327C12.2714 3.73078 12.2801 3.72879 12.2888 3.72695C12.2974 3.72513 12.3061 3.72343 12.3148 3.72168L12.3408 3.71656C12.3494 3.71488 12.3581 3.71317 12.3668 3.71159C12.3754 3.71002 12.3841 3.70858 12.3928 3.70707C12.4014 3.70556 12.4101 3.704 12.4188 3.70257C12.4274 3.70114 12.4361 3.69985 12.4448 3.6985L12.4708 3.69459C12.4794 3.69334 12.4881 3.69199 12.4968 3.69079C12.5054 3.6896 12.5141 3.6886 12.5228 3.68749C12.5314 3.68639 12.5401 3.68522 12.5488 3.68418L12.5748 3.68123L12.6008 3.67855C12.6095 3.67767 12.6181 3.67665 12.6268 3.67585C12.6354 3.67504 12.6441 3.67446 12.6528 3.67373L12.6788 3.67166C12.6875 3.67099 12.6961 3.67035 12.7048 3.66978C12.7135 3.66921 12.7221 3.66876 12.7308 3.66828C12.7395 3.66779 12.7481 3.66722 12.7568 3.66679C12.7655 3.66636 12.7741 3.66606 12.7828 3.66571L12.8088 3.66481C12.8175 3.66454 12.8261 3.66413 12.8348 3.66393C12.8435 3.66374 12.8522 3.66376 12.8608 3.66364C12.8695 3.66352 12.8782 3.66338 12.8868 3.66334L12.9128 3.66321H12.9389H12.9649H12.9908H13.0169H13.0429H13.0689H13.0949H13.1209H13.1469H13.1729H13.1989H13.2249H13.2509H13.2769H13.3029H13.3289H13.3549H13.3809H13.4069H13.4329H13.4589H13.4849H13.5109H13.5369H13.5629H13.589H13.615H13.6409H13.667H13.693H13.719H13.745H13.771H13.797H13.823H13.849H13.875H13.901H13.927H13.953H13.979H14.005H14.031H14.057H14.083H14.109H14.135H14.161H14.187H14.213H14.239H14.2651H14.291H14.3171H14.3431H14.3691H14.3951H14.4211H14.4471H14.4731H14.4991H14.5251H14.5511H14.5771H14.6031H14.6291H14.6551H14.6811H14.7071H14.7331H14.7591H14.7851H14.8111H14.8371H14.8631H14.8891H14.9152H14.9411H14.9671H14.9932H15.0192H15.0452H15.0712H15.0972H15.1232H15.1492H15.1752H15.2012H15.2272H15.2532H15.2792H15.3052H15.3312H15.3572H15.3832H15.4092H15.4352H15.4612H15.4872H15.5132H15.5392H15.5652H15.5912H15.6172H15.6433H15.6693H15.6953H15.7213H15.7473H15.7733H15.7993H15.8253H15.8513H15.8773H15.9033H15.9293H15.9553H15.9813H16.0073H16.0333H16.0593H16.0853H16.1113H16.1373H16.1633H16.1893H16.2153H16.2413H16.2673H16.2933H16.3194H16.3454H16.3714H16.3974H16.4234H16.4494H16.4754H16.5014H16.5274H16.5534H16.5794H16.6054H16.6314H16.6574H16.6834H16.7094H16.7354H16.7614H16.7874H16.8134H16.8394H16.8615V15.8911C16.8615 15.9975 16.854 16.1023 16.8394 16.2051C16.8324 16.2546 16.8236 16.3035 16.8134 16.352C16.8056 16.3889 16.797 16.4256 16.7874 16.4619C16.7793 16.4924 16.7707 16.5228 16.7614 16.5529C16.7532 16.5794 16.7445 16.6056 16.7354 16.6316C16.7271 16.6552 16.7184 16.6786 16.7094 16.7019C16.7011 16.7235 16.6924 16.7449 16.6834 16.7662C16.675 16.786 16.6663 16.8057 16.6574 16.8253C16.649 16.8438 16.6403 16.8622 16.6314 16.8804C16.6229 16.8977 16.6143 16.9148 16.6054 16.9319C16.5969 16.9482 16.5882 16.9644 16.5794 16.9805C16.5709 16.996 16.5622 17.0113 16.5534 17.0266C16.5449 17.0413 16.5362 17.0559 16.5274 17.0704C16.5188 17.0845 16.5102 17.0985 16.5014 17.1123C16.4929 17.1257 16.4842 17.139 16.4754 17.1522C16.4669 17.165 16.4581 17.1777 16.4494 17.1903C16.4408 17.2027 16.4321 17.2149 16.4234 17.2271C16.4148 17.239 16.4062 17.2509 16.3974 17.2627C16.3888 17.2741 16.3801 17.2854 16.3714 17.2967C16.3628 17.3077 16.3541 17.3186 16.3454 17.3295C16.3368 17.3402 16.3281 17.3509 16.3194 17.3615C16.3108 17.3718 16.3021 17.382 16.2933 17.3922C16.2848 17.4022 16.2761 17.412 16.2673 17.4219C16.2587 17.4316 16.2501 17.4413 16.2413 17.4509C16.2328 17.4603 16.2241 17.4695 16.2153 17.4788C16.2067 17.4879 16.1981 17.497 16.1893 17.506C16.1807 17.5148 16.1721 17.5238 16.1633 17.5325C16.1548 17.5411 16.146 17.5495 16.1373 17.558C16.1287 17.5664 16.1201 17.5748 16.1113 17.5831C16.1027 17.5912 16.094 17.5992 16.0853 17.6072C16.0767 17.6151 16.0681 17.623 16.0593 17.6308C16.0507 17.6385 16.042 17.6462 16.0333 17.6538C16.0247 17.6613 16.016 17.6687 16.0073 17.6761C15.9987 17.6835 15.9901 17.6908 15.9813 17.6981C15.9727 17.7052 15.964 17.7121 15.9553 17.7191C15.9466 17.7261 15.9381 17.7331 15.9293 17.74C15.9207 17.7467 15.912 17.7533 15.9033 17.76C15.8946 17.7666 15.886 17.7733 15.8773 17.7798C15.8687 17.7862 15.86 17.7925 15.8513 17.7988C15.8426 17.8051 15.834 17.8115 15.8253 17.8177C15.8167 17.8238 15.808 17.8297 15.7993 17.8357C15.7906 17.8417 15.782 17.8477 15.7733 17.8536C15.7647 17.8594 15.7559 17.8651 15.7473 17.8708C15.7386 17.8765 15.73 17.8823 15.7213 17.8879C15.7127 17.8934 15.704 17.8988 15.6953 17.9042C15.6866 17.9097 15.678 17.9152 15.6693 17.9205C15.6607 17.9257 15.6519 17.9308 15.6433 17.936C15.6346 17.9412 15.626 17.9464 15.6172 17.9515C15.6087 17.9565 15.5999 17.9613 15.5912 17.9662C15.5826 17.9711 15.574 17.9761 15.5652 17.9809C15.5566 17.9857 15.5479 17.9903 15.5392 17.995C15.5306 17.9996 15.522 18.0043 15.5132 18.0089C15.5046 18.0134 15.4959 18.0178 15.4872 18.0223C15.4786 18.0267 15.4699 18.0311 15.4612 18.0354C15.4526 18.0397 15.4439 18.044 15.4352 18.0482L15.4092 18.0607C15.4006 18.0647 15.3919 18.0688 15.3832 18.0728C15.3746 18.0768 15.3659 18.0807 15.3572 18.0846C15.3485 18.0884 15.3399 18.0924 15.3312 18.0962C15.3226 18.1 15.3139 18.1036 15.3052 18.1072C15.2965 18.1109 15.2879 18.1146 15.2792 18.1182C15.2706 18.1218 15.2619 18.1252 15.2532 18.1287L15.2272 18.139L15.2012 18.149C15.1926 18.1523 15.1839 18.1554 15.1752 18.1586C15.1665 18.1618 15.1579 18.1651 15.1492 18.1682C15.1406 18.1712 15.1319 18.1741 15.1232 18.1771C15.1145 18.1801 15.1059 18.1832 15.0972 18.1861C15.0885 18.189 15.0798 18.1917 15.0712 18.1945L15.0452 18.2028L15.0192 18.2109C15.0105 18.2135 15.0018 18.216 14.9932 18.2186C14.9845 18.2211 14.9759 18.2238 14.9671 18.2262C14.9585 18.2287 14.9498 18.2309 14.9411 18.2333L14.9152 18.2403L14.8891 18.247C14.8805 18.2492 14.8718 18.2513 14.8631 18.2534C14.8545 18.2555 14.8458 18.2577 14.8371 18.2597C14.8285 18.2618 14.8198 18.2635 14.8111 18.2655C14.8025 18.2674 14.7938 18.2694 14.7851 18.2712L14.7591 18.2767L14.7331 18.2818C14.7244 18.2835 14.7158 18.2853 14.7071 18.2869C14.6985 18.2886 14.6898 18.2899 14.6811 18.2914C14.6724 18.293 14.6638 18.2945 14.6551 18.296L14.6291 18.3002C14.6205 18.3016 14.6118 18.3028 14.6031 18.3041C14.5944 18.3054 14.5858 18.3068 14.5771 18.308C14.5685 18.3092 14.5598 18.3102 14.5511 18.3114L14.5251 18.3147C14.5164 18.3157 14.5078 18.3168 14.4991 18.3178C14.4904 18.3188 14.4817 18.3196 14.4731 18.3205C14.4644 18.3214 14.4558 18.3224 14.4471 18.3232C14.4384 18.324 14.4297 18.3247 14.4211 18.3255L14.3951 18.3276C14.3864 18.3282 14.3778 18.3291 14.3691 18.3296C14.3604 18.3302 14.3517 18.3306 14.3431 18.3311L14.3171 18.3326L14.291 18.3339C14.2824 18.3342 14.2737 18.3345 14.2651 18.3348C14.2564 18.3351 14.2477 18.3354 14.239 18.3357C14.2304 18.3359 14.2217 18.336 14.213 18.3361L14.187 18.3364C14.179 18.3365 14.171 18.3367 14.1629 18.3367H14.135H14.109H14.083H14.057H14.031H14.005H13.979H13.953H13.927H13.901H13.875H13.849H13.823H13.797H13.771H13.745H13.719H13.693H13.667H13.6409H13.615H13.589H13.5629H13.5369H13.5109H13.4849H13.4589H13.4329H13.4069H13.3809H13.3549H13.3289H13.3029H13.2769H13.2509H13.2249H13.1989H13.1729H13.1469H13.1209H13.0949H13.0689H13.0429H13.0169H12.9908H12.9649H12.9389H12.9128H12.8868H12.8608H12.8348H12.8088H12.7828H12.7568H12.7308H12.7048H12.6788H12.6528H12.6268H12.6008H12.5748H12.5488H12.5228H12.4968H12.4708H12.4448H12.4188H12.3928H12.3668H12.3408H12.3148H12.2888H12.2627H12.2367H12.2107H12.1847H12.1587H12.1327H12.1067H12.0807H12.0547H12.0287H12.0027H11.9767H11.9507H11.9247H11.8987H11.8727H11.8467H11.8207H11.7947H11.7687H11.7427H11.7167H11.6907H11.6646H11.6387H11.6127H11.5866H11.5606H11.5346H11.5086H11.4826H11.4566H11.4306H11.4046H11.3786H11.3526H11.3266H11.3006H11.2746H11.2486H11.2226H11.1966H11.1706H11.1446H11.1186H11.0926H11.0666H11.0406H11.0146H10.9886H10.9626H10.9365H10.9105H10.8846H10.8585H10.8325H10.8065H10.7805H10.7545H10.7285H10.7025H10.6765H10.6505H10.6245H10.5985H10.5725H10.5465H10.5205H10.4945H10.4685H10.4425H10.4165H10.3905H10.3645H10.3385H10.3125H10.2865H10.2604H10.2046V13.1827C10.2046 13.1827 10.2238 13.1875 10.2604 13.1959L10.2865 13.2018L10.3125 13.2076L10.3385 13.2132L10.3645 13.2188L10.3905 13.2243L10.4165 13.2297L10.4425 13.235L10.4685 13.2402L10.4945 13.2454L10.5205 13.2505L10.5465 13.2555L10.5725 13.2605L10.5985 13.2654L10.6245 13.2702L10.6505 13.275L10.6765 13.2797L10.7025 13.2844L10.7285 13.2889L10.7545 13.2935L10.7805 13.298L10.8065 13.3024L10.8325 13.3067L10.8585 13.311L10.8846 13.3153L10.9105 13.3195L10.9365 13.3236L10.9626 13.3277L10.9886 13.3317L11.0146 13.3357L11.0406 13.3396L11.0666 13.3435L11.0926 13.3473L11.1186 13.3511L11.1446 13.3548L11.1706 13.3584L11.1966 13.3621L11.2226 13.3656L11.2486 13.3691L11.2746 13.3725L11.3006 13.3759L11.3266 13.3793L11.3526 13.3826L11.3786 13.3858L11.4046 13.389L11.4306 13.3922L11.4566 13.3953L11.4826 13.3983L11.5086 13.4013L11.5346 13.4042L11.5606 13.4071L11.5866 13.41L11.6127 13.4127L11.6387 13.4155L11.6646 13.4181L11.6907 13.4208L11.7167 13.4234L11.7427 13.4259L11.7687 13.4284L11.7947 13.4308L11.8207 13.4332L11.8467 13.4355L11.8727 13.4378L11.8987 13.4401L11.9247 13.4422L11.9507 13.4444L11.9767 13.4464L12.0027 13.4485L12.0287 13.4504L12.0547 13.4524L12.0807 13.4543L12.1067 13.456L12.1327 13.4578L12.1587 13.4595L12.1847 13.4612L12.2107 13.4628L12.2367 13.4644L12.2627 13.4659L12.2888 13.4674L12.3148 13.4688L12.3408 13.4701L12.3668 13.4714L12.3928 13.4727L12.4188 13.4739L12.4448 13.475L12.4708 13.4761L12.4968 13.4771L12.5228 13.4781L12.5488 13.4791L12.5748 13.4799L12.6008 13.4807L12.6268 13.4815L12.6528 13.4822L12.6788 13.4829L12.7048 13.4835L12.7308 13.484L12.7568 13.4846L12.7828 13.485L12.8088 13.4854L12.8348 13.4857L12.8608 13.4859L12.8868 13.4862L12.9128 13.4864L12.9389 13.4865L12.9649 13.4865L12.9908 13.4865L13.0169 13.4863L13.0429 13.4862L13.0689 13.486L13.0949 13.4859L13.1209 13.4855L13.1469 13.485L13.1729 13.4846L13.1989 13.4842L13.2249 13.4836L13.2509 13.4829L13.2769 13.4821L13.3029 13.4814L13.3289 13.4806L13.3549 13.4796L13.3809 13.4786L13.4069 13.4775L13.4329 13.4765L13.4589 13.4751L13.4849 13.4738L13.5109 13.4724L13.5369 13.4711L13.5629 13.4695L13.589 13.4678L13.615 13.4661L13.6409 13.4644L13.667 13.4625L13.693 13.4605L13.719 13.4585L13.745 13.4564L13.771 13.4542L13.797 13.4518L13.823 13.4494L13.849 13.447L13.875 13.4444L13.901 13.4416L13.927 13.4388L13.953 13.4361L13.979 13.433L14.005 13.4299L14.031 13.4267L14.057 13.4235C14.0658 13.4224 14.0743 13.4211 14.083 13.42L14.109 13.4164L14.135 13.4129L14.161 13.4091C14.1698 13.4078 14.1783 13.4065 14.187 13.4051L14.213 13.4012C14.2217 13.3999 14.2305 13.3986 14.239 13.3972C14.2478 13.3958 14.2563 13.3943 14.2651 13.3929L14.291 13.3885L14.3171 13.3841L14.3431 13.3794C14.3518 13.3779 14.3604 13.3762 14.3691 13.3746L14.3951 13.3697L14.4211 13.3648C14.4299 13.3631 14.4384 13.3613 14.4471 13.3595L14.4731 13.3542C14.4817 13.3524 14.4905 13.3507 14.4991 13.3489C14.5079 13.347 14.5164 13.345 14.5251 13.3431L14.5511 13.3373C14.5597 13.3354 14.5685 13.3335 14.5771 13.3315C14.5858 13.3295 14.5944 13.3274 14.6031 13.3253L14.6291 13.319C14.6378 13.3169 14.6465 13.3149 14.6551 13.3127C14.6639 13.3106 14.6724 13.3083 14.6811 13.3061L14.7071 13.2992C14.7158 13.2969 14.7245 13.2947 14.7331 13.2924L14.7591 13.2852L14.7851 13.2778C14.7938 13.2753 14.8026 13.2729 14.8111 13.2704L14.8371 13.2625L14.8631 13.2545C14.8718 13.2519 14.8806 13.2493 14.8891 13.2466C14.8979 13.2438 14.9065 13.2409 14.9152 13.238L14.9411 13.2294C14.9498 13.2265 14.9586 13.2237 14.9671 13.2207C14.9759 13.2177 14.9845 13.2146 14.9932 13.2115C15.0018 13.2084 15.0106 13.2054 15.0192 13.2022L15.0452 13.1927L15.0712 13.1828C15.0798 13.1795 15.0886 13.1762 15.0972 13.1729C15.106 13.1694 15.1145 13.1658 15.1232 13.1623L15.1492 13.1517L15.1752 13.1407C15.1839 13.137 15.1926 13.1332 15.2012 13.1294C15.2098 13.1256 15.2187 13.1218 15.2272 13.118C15.236 13.114 15.2445 13.1099 15.2532 13.1059C15.2619 13.1018 15.2706 13.0978 15.2792 13.0937C15.288 13.0896 15.2966 13.0853 15.3052 13.081C15.3139 13.0767 15.3226 13.0724 15.3312 13.0681C15.34 13.0637 15.3486 13.0592 15.3572 13.0547C15.366 13.0502 15.3746 13.0455 15.3832 13.0409C15.3919 13.0362 15.4006 13.0315 15.4092 13.0268C15.418 13.0219 15.4266 13.017 15.4352 13.0121C15.4439 13.0071 15.4527 13.0022 15.4612 12.9971C15.47 12.992 15.4786 12.9867 15.4872 12.9814C15.4959 12.9761 15.5047 12.9709 15.5132 12.9655C15.522 12.96 15.5306 12.9544 15.5392 12.9488C15.5479 12.9432 15.5567 12.9375 15.5652 12.9318C15.574 12.9259 15.5826 12.9199 15.5912 12.914C15.6 12.9079 15.6087 12.9018 15.6172 12.8957C15.626 12.8894 15.6347 12.8831 15.6433 12.8767C15.652 12.8702 15.6607 12.8636 15.6693 12.857C15.678 12.8503 15.6867 12.8436 15.6953 12.8368C15.7041 12.8297 15.7127 12.8225 15.7213 12.8154C15.73 12.8082 15.7388 12.8009 15.7473 12.7936C15.7561 12.786 15.7647 12.7783 15.7733 12.7706C15.7821 12.7627 15.7907 12.7547 15.7993 12.7467C15.808 12.7385 15.8168 12.7304 15.8253 12.7221C15.8341 12.7134 15.8427 12.7047 15.8513 12.6959C15.8601 12.6869 15.8688 12.6778 15.8773 12.6686C15.8861 12.6592 15.8948 12.6498 15.9033 12.6402C15.9121 12.6303 15.9208 12.6204 15.9293 12.6104C15.9382 12.5999 15.9468 12.5892 15.9553 12.5786C15.9642 12.5675 15.9728 12.5564 15.9813 12.5452C15.9902 12.5335 15.9988 12.5217 16.0073 12.5098C16.0162 12.4973 16.0249 12.4848 16.0333 12.4722C16.0422 12.4588 16.0509 12.4454 16.0593 12.4319C16.0683 12.4175 16.0769 12.4031 16.0853 12.3885C16.0943 12.373 16.103 12.3573 16.1113 12.3415C16.1204 12.3245 16.129 12.3074 16.1373 12.2902C16.1464 12.2714 16.1551 12.2526 16.1633 12.2335C16.1725 12.2125 16.1812 12.1914 16.1893 12.17C16.1986 12.1458 16.2072 12.1213 16.2153 12.0966C16.2248 12.0678 16.2334 12.0387 16.2413 12.0093C16.2512 11.9728 16.2599 11.9359 16.2673 11.8986C16.2785 11.843 16.2871 11.7866 16.2933 11.7294C16.3021 11.6497 16.3063 11.5686 16.3063 11.4861V8.64864H16.2673H16.2413H16.2153H16.1893H16.1633H16.1373H16.1113H16.0853H16.0593H16.0333H16.0073H15.9813H15.9553H15.9293H15.9033H15.8773H15.8513H15.8253H15.7993H15.7733H15.7473H15.7213H15.6953H15.6693H15.6433H15.6172H15.5912H15.5652H15.5392H15.5132H15.4872H15.4612H15.4352H15.4092H15.3832H15.3572H15.3312H15.3052H15.2792H15.2532H15.2272H15.2012H15.1752H15.1492H15.1232H15.0972H15.0712H15.0452H15.0192H14.9932H14.9671H14.9411H14.9152H14.8891H14.8631H14.8371H14.8111H14.7851H14.7591H14.7331H14.7071H14.6811H14.6551H14.6291H14.6031H14.5771H14.5511H14.5251H14.4991H14.4731H14.4471H14.4211H14.3951H14.3691H14.3431H14.3171H14.291H14.2651H14.239H14.213H14.187H14.161H14.135H14.109H14.083H14.057H14.031H14.005L13.9853 11.4861C13.9853 11.5306 13.9832 11.5743 13.979 11.6171C13.9737 11.6717 13.965 11.725 13.953 11.7767C13.9456 11.8087 13.9369 11.8401 13.927 11.8709C13.9191 11.8954 13.9105 11.9196 13.901 11.9433C13.8929 11.9635 13.8842 11.9834 13.875 12.003C13.8668 12.0205 13.8581 12.0377 13.849 12.0547C13.8407 12.0701 13.832 12.0854 13.823 12.1004C13.8146 12.1142 13.8059 12.1278 13.797 12.1412C13.7886 12.1538 13.7799 12.1663 13.771 12.1785C13.7625 12.19 13.7539 12.2014 13.745 12.2126C13.7365 12.2232 13.7279 12.2338 13.719 12.2442C13.7105 12.2541 13.7018 12.2637 13.693 12.2733C13.6845 12.2825 13.6758 12.2915 13.667 12.3005C13.6585 12.3091 13.6498 12.3176 13.6409 12.3259C13.6324 12.334 13.6238 12.342 13.615 12.3498C13.6064 12.3574 13.5978 12.3649 13.589 12.3723C13.5804 12.3794 13.5717 12.3864 13.5629 12.3933C13.5544 12.4 13.5457 12.4066 13.5369 12.4132C13.5284 12.4195 13.5197 12.4257 13.5109 12.4319C13.5024 12.4379 13.4937 12.4438 13.4849 12.4496C13.4764 12.4553 13.4677 12.4609 13.4589 12.4664C13.4504 12.4718 13.4417 12.477 13.4329 12.4823C13.4243 12.4874 13.4157 12.4924 13.4069 12.4973C13.3984 12.5021 13.3897 12.5068 13.3809 12.5115C13.3723 12.5161 13.3637 12.5205 13.3549 12.5249C13.3463 12.5293 13.3377 12.5335 13.3289 12.5377C13.3203 12.5418 13.3117 12.5458 13.3029 12.5497C13.2943 12.5536 13.2856 12.5574 13.2769 12.5612C13.2683 12.5649 13.2597 12.5685 13.2509 12.5721C13.2423 12.5755 13.2336 12.579 13.2249 12.5823C13.2163 12.5856 13.2076 12.5888 13.1989 12.5919C13.1903 12.595 13.1816 12.5981 13.1729 12.601C13.1643 12.604 13.1556 12.6069 13.1469 12.6097C13.1383 12.6125 13.1296 12.6152 13.1209 12.6179C13.1123 12.6205 13.1036 12.623 13.0949 12.6255C13.0863 12.6279 13.0776 12.6303 13.0689 12.6326C13.0603 12.6349 13.0516 12.6372 13.0429 12.6394C13.0342 12.6415 13.0256 12.6437 13.0169 12.6457C13.0082 12.6477 12.9996 12.6497 12.9908 12.6516C12.9823 12.6534 12.9736 12.6552 12.9649 12.657C12.9562 12.6587 12.9476 12.6605 12.9389 12.6621C12.9302 12.6637 12.9216 12.6653 12.9128 12.6668C12.9042 12.6683 12.8955 12.6697 12.8868 12.6711C12.8782 12.6725 12.8695 12.6738 12.8608 12.6751L12.8348 12.6787C12.8262 12.6798 12.8175 12.6809 12.8088 12.6819C12.8002 12.6829 12.7916 12.684 12.7828 12.6849L12.7568 12.6875C12.7482 12.6883 12.7395 12.689 12.7308 12.6897C12.7222 12.6904 12.7135 12.6912 12.7048 12.6918C12.6962 12.6924 12.6875 12.6929 12.6788 12.6934C12.6702 12.6939 12.6615 12.6943 12.6528 12.6948C12.6441 12.6952 12.6355 12.6956 12.6268 12.6959C12.6182 12.6962 12.6095 12.6964 12.6008 12.6966L12.5748 12.6972C12.5662 12.6973 12.5575 12.6973 12.5488 12.6974L12.5228 12.6974L12.4968 12.6973L12.4708 12.6969L12.4448 12.6964L12.4188 12.6958L12.3928 12.6951L12.3668 12.6941L12.3408 12.693L12.3148 12.6918L12.2888 12.6904L12.2627 12.6889L12.2367 12.6872L12.2107 12.6854L12.1847 12.6834L12.1587 12.6813L12.1327 12.679L12.1067 12.6766L12.0807 12.6741L12.0547 12.6714L12.0287 12.6685L12.0027 12.6655L11.9767 12.6624L11.9507 12.6592L11.9247 12.6557L11.8987 12.6522L11.8727 12.6485L11.8467 12.6447L11.8207 12.6407L11.7947 12.6367L11.7687 12.6324L11.7427 12.628L11.7167 12.6235L11.6907 12.6189L11.6646 12.6141L11.6387 12.6092L11.6127 12.6042L11.5866 12.599L11.5606 12.5937L11.5346 12.5882L11.5086 12.5827L11.4826 12.5769L11.4566 12.5711L11.4306 12.5652L11.4046 12.559L11.3786 12.5528L11.3526 12.5465L11.3266 12.54L11.3006 12.5334L11.2746 12.5267L11.2486 12.5199L11.2226 12.5129L11.1966 12.5058L11.1706 12.4986L11.1446 12.4912L11.1186 12.4837L11.0926 12.4762L11.0666 12.4685L11.0406 12.4606L11.0146 12.4527L10.9886 12.4446L10.9626 12.4365L10.9365 12.4281L10.9105 12.4197L10.8846 12.4112L10.8585 12.4025L10.8325 12.3938L10.8065 12.3849L10.7805 12.3759L10.7545 12.3668L10.7285 12.3576L10.7025 12.3482L10.6765 12.3388L10.6505 12.3292L10.6245 12.3196L10.5985 12.3098L10.5725 12.2999L10.5465 12.2899L10.5205 12.2798L10.4945 12.2696L10.4685 12.2593L10.4425 12.2489L10.4165 12.2384L10.3905 12.2277L10.3645 12.217L10.3385 12.2062L10.3125 12.1952L10.2865 12.1842L10.2604 12.173C10.2418 12.165 10.2232 12.1569 10.2046 12.1488Z" fill="#006CB9"/>
<path fill-rule="evenodd" clip-rule="evenodd" d="M17.7272 9.26864C17.7083 9.28253 17.6896 9.29654 17.6714 9.31072V6.10897C17.6714 5.9387 17.6907 5.77251 17.7272 5.61202C17.7351 5.57757 17.7438 5.54343 17.7532 5.50953C17.7613 5.48043 17.77 5.45158 17.7792 5.42292C17.7875 5.39739 17.7961 5.37203 17.8053 5.34685C17.8136 5.32384 17.8222 5.30095 17.8312 5.27826C17.8396 5.25723 17.8483 5.23629 17.8573 5.21554C17.8657 5.19613 17.8743 5.17682 17.8833 5.15765C17.8917 5.13957 17.9004 5.12161 17.9093 5.10375C17.9177 5.08679 17.9264 5.06994 17.9353 5.05319C17.9437 5.03719 17.9524 5.02134 17.9613 5.00554C17.9698 4.99036 17.9785 4.97529 17.9873 4.96029C17.9958 4.94583 18.0045 4.93147 18.0133 4.91719C18.0218 4.90335 18.0305 4.88958 18.0393 4.87593C18.0478 4.86266 18.0565 4.84945 18.0653 4.83635C18.0738 4.82369 18.0825 4.81111 18.0913 4.79861C18.0998 4.78644 18.1085 4.77441 18.1173 4.76239C18.1259 4.75064 18.1345 4.73896 18.1433 4.72736C18.1519 4.71597 18.1605 4.70458 18.1693 4.69335C18.1778 4.68248 18.1866 4.67177 18.1953 4.66105C18.2039 4.65049 18.2126 4.63998 18.2213 4.62955C18.2299 4.61928 18.2385 4.60899 18.2473 4.59886C18.2559 4.58902 18.2646 4.57931 18.2733 4.56959C18.2819 4.55999 18.2906 4.55042 18.2993 4.54095C18.308 4.5316 18.3166 4.52229 18.3254 4.51307C18.3339 4.50407 18.3426 4.49519 18.3513 4.48631C18.36 4.4775 18.3686 4.46866 18.3774 4.45995C18.3859 4.45144 18.3946 4.44303 18.4033 4.43464C18.4119 4.42634 18.4206 4.41811 18.4293 4.40991C18.438 4.40183 18.4466 4.39375 18.4554 4.38577C18.4639 4.37794 18.4726 4.37021 18.4813 4.36249C18.49 4.3548 18.4986 4.34705 18.5074 4.33946C18.5159 4.33204 18.5247 4.32481 18.5334 4.31749C18.542 4.31019 18.5506 4.30287 18.5594 4.29569C18.568 4.28865 18.5767 4.28173 18.5854 4.27478C18.594 4.26785 18.6026 4.26095 18.6114 4.25414C18.62 4.24743 18.6287 4.24084 18.6374 4.23422C18.646 4.22767 18.6547 4.22112 18.6634 4.21464C18.672 4.20826 18.6807 4.20194 18.6894 4.19566C18.698 4.18942 18.7067 4.18322 18.7154 4.17708C18.724 4.17101 18.7327 4.16501 18.7414 4.15902C18.75 4.15309 18.7587 4.14718 18.7674 4.14135C18.776 4.13556 18.7847 4.12985 18.7934 4.12416C18.8021 4.11852 18.8107 4.11289 18.8194 4.10733C18.8281 4.10183 18.8367 4.09641 18.8454 4.091C18.8541 4.08562 18.8627 4.08026 18.8714 4.07497C18.88 4.06975 18.8887 4.0646 18.8974 4.05946C18.9061 4.05433 18.9147 4.04921 18.9234 4.04418C18.9321 4.03921 18.9408 4.03436 18.9495 4.02947C18.9581 4.0246 18.9667 4.01967 18.9755 4.01489C18.9841 4.01016 18.9928 4.00558 19.0015 4.00094C19.0101 3.99631 19.0187 3.99157 19.0275 3.98703C19.0361 3.98255 19.0448 3.97825 19.0535 3.97385C19.0622 3.96944 19.0708 3.965 19.0795 3.9607C19.0881 3.95643 19.0968 3.95233 19.1055 3.94814C19.1141 3.94397 19.1228 3.93979 19.1315 3.9357L19.1575 3.9237L19.1835 3.91198C19.1921 3.90815 19.2008 3.90428 19.2095 3.90052C19.2181 3.89678 19.2268 3.89316 19.2355 3.88951C19.2442 3.88587 19.2528 3.88211 19.2615 3.87855C19.2701 3.87501 19.2788 3.87168 19.2875 3.86824C19.2962 3.8648 19.3048 3.86129 19.3135 3.85793C19.3222 3.8546 19.3308 3.85138 19.3395 3.84813L19.3655 3.8385C19.3742 3.83535 19.3828 3.8322 19.3915 3.82913C19.4002 3.82608 19.4089 3.82314 19.4175 3.82017C19.4262 3.8172 19.4348 3.81413 19.4435 3.81123C19.4522 3.80837 19.4609 3.80571 19.4696 3.80293C19.4782 3.80016 19.4869 3.79734 19.4956 3.79464C19.5042 3.79194 19.5129 3.78936 19.5216 3.78676L19.5476 3.77911C19.5562 3.7766 19.5649 3.77404 19.5736 3.77159C19.5822 3.76919 19.5909 3.76692 19.5996 3.76459C19.6082 3.76224 19.6169 3.75983 19.6256 3.75757C19.6342 3.75532 19.6429 3.75322 19.6516 3.75105L19.6776 3.74465C19.6863 3.74258 19.6949 3.74047 19.7036 3.73847C19.7122 3.73649 19.7209 3.73464 19.7296 3.73272C19.7383 3.7308 19.7469 3.72881 19.7556 3.72697C19.7643 3.72515 19.773 3.72345 19.7816 3.7217L19.8076 3.71658C19.8163 3.71492 19.8249 3.71319 19.8336 3.71161C19.8423 3.71002 19.851 3.7086 19.8596 3.70709C19.8683 3.70558 19.8769 3.704 19.8856 3.70257L19.9117 3.6985L19.9377 3.69461C19.9463 3.69334 19.955 3.69199 19.9637 3.69079C19.9723 3.6896 19.981 3.6886 19.9897 3.68749C19.9983 3.68639 20.007 3.68524 20.0157 3.6842L20.0417 3.68125L20.0677 3.67855C20.0763 3.67767 20.085 3.67665 20.0937 3.67585C20.1023 3.67504 20.111 3.67446 20.1197 3.67373L20.1457 3.67166C20.1544 3.67099 20.163 3.67035 20.1717 3.66978C20.1804 3.66921 20.189 3.66876 20.1977 3.66828C20.2064 3.66779 20.215 3.66722 20.2237 3.66679C20.2324 3.66636 20.241 3.66606 20.2497 3.66571L20.2757 3.66481C20.2844 3.66454 20.293 3.66413 20.3017 3.66393C20.3104 3.66374 20.3191 3.66376 20.3277 3.66364C20.3364 3.66352 20.3451 3.66338 20.3537 3.66334L20.3652 3.66321H20.3797H20.4058H20.4318H20.4578H20.4838H20.5098H20.5358H20.5618H20.5878H20.6138H20.6398H20.6658H20.6918H20.7178H20.7438H20.7698H20.7958H20.8218H20.8478H20.8738H20.8998H20.9258H20.9519H20.9779H21.0039H21.0299H21.0559H21.0819H21.1079H21.1339H21.1599H21.1859H21.2119H21.2379H21.2639H21.2899H21.3159H21.3419H21.3679H21.394H21.4199H21.446H21.472H21.498H21.524H21.55H21.576H21.602H21.628H21.654H21.68H21.706H21.732H21.758H21.784H21.81H21.836H21.862H21.8881H21.9141H21.9401H21.9661H21.9921H22.0181H22.0441H22.0701H22.0961H22.1221H22.1481H22.1741H22.2001H22.2261H22.2521H22.2781H22.3041H22.3301H22.3562H22.3821H22.4082H22.4342H22.4602H22.4862H22.5122H22.5382H22.5642H22.5902H22.6162H22.6422H22.6682H22.6942H22.7202H22.7462H22.7722H22.7982H22.8242H22.8503H22.8763H22.9022H22.9283H22.9543H22.9803H23.0063H23.0323H23.0583H23.0843H23.1103H23.1363H23.1623H23.1883H23.2143H23.2403H23.2663H23.2923H23.3183H23.3443H23.3703H23.3964H23.4224H23.4484H23.4744H23.5004H23.5264H23.5524H23.5784H23.6044H23.6304H23.6564H23.6824H23.7084H23.7344H23.7604H23.7864H23.8124H23.8384H23.8644H23.8905H23.9165H23.9425H23.9685H23.9945H24.0205H24.0465H24.0725H24.0985H24.1245H24.1505H24.1765H24.2025H24.2285H24.2545H24.2805H24.3065H24.3286V15.8911C24.3286 15.9974 24.3211 16.1022 24.3065 16.2049C24.2995 16.2544 24.2908 16.3033 24.2805 16.3518C24.2728 16.3887 24.2641 16.4254 24.2545 16.4617C24.2465 16.4923 24.2378 16.5227 24.2285 16.5528C24.2203 16.5792 24.2116 16.6055 24.2025 16.6315C24.1942 16.6551 24.1855 16.6785 24.1765 16.7018C24.1682 16.7233 24.1595 16.7448 24.1505 16.766C24.1421 16.7859 24.1335 16.8056 24.1245 16.8252C24.1161 16.8436 24.1074 16.862 24.0985 16.8802C24.09 16.8975 24.0814 16.9147 24.0725 16.9318C24.064 16.9481 24.0554 16.9643 24.0465 16.9804C24.038 16.9958 24.0293 17.0112 24.0205 17.0265C24.012 17.0412 24.0033 17.0558 23.9945 17.0703C23.9859 17.0844 23.9773 17.0984 23.9685 17.1122C23.96 17.1256 23.9513 17.1389 23.9425 17.1521C23.9339 17.1649 23.9252 17.1775 23.9165 17.1902C23.9079 17.2025 23.8992 17.2148 23.8905 17.227C23.8819 17.2389 23.8733 17.2508 23.8644 17.2626C23.8559 17.274 23.8472 17.2853 23.8384 17.2966C23.8299 17.3076 23.8212 17.3185 23.8124 17.3294C23.8038 17.3401 23.7952 17.3508 23.7864 17.3613C23.7779 17.3716 23.7692 17.3819 23.7604 17.392C23.7519 17.402 23.7431 17.4119 23.7344 17.4217C23.7258 17.4315 23.7172 17.4412 23.7084 17.4508C23.6999 17.4602 23.6911 17.4694 23.6824 17.4787C23.6738 17.4878 23.6652 17.4968 23.6564 17.5058C23.6478 17.5147 23.6392 17.5236 23.6304 17.5324C23.6218 17.541 23.6131 17.5494 23.6044 17.5578C23.5958 17.5662 23.5872 17.5747 23.5784 17.583C23.5698 17.5911 23.5611 17.5991 23.5524 17.6071C23.5438 17.615 23.5351 17.6228 23.5264 17.6307C23.5178 17.6384 23.5091 17.6461 23.5004 17.6537C23.4918 17.6612 23.4831 17.6686 23.4744 17.676C23.4657 17.6833 23.4571 17.6907 23.4484 17.698C23.4398 17.7051 23.4311 17.712 23.4224 17.719C23.4137 17.726 23.4051 17.7331 23.3964 17.7399C23.3878 17.7467 23.379 17.7532 23.3703 17.7599C23.3617 17.7665 23.3531 17.7732 23.3443 17.7797C23.3357 17.7861 23.327 17.7924 23.3183 17.7987C23.3097 17.805 23.3011 17.8113 23.2923 17.8175C23.2837 17.8237 23.275 17.8296 23.2663 17.8356C23.2577 17.8416 23.2491 17.8476 23.2403 17.8535C23.2317 17.8593 23.223 17.865 23.2143 17.8707C23.2057 17.8764 23.197 17.8822 23.1883 17.8878C23.1797 17.8933 23.171 17.8987 23.1623 17.9041C23.1537 17.9096 23.145 17.9151 23.1363 17.9204C23.1277 17.9256 23.119 17.9307 23.1103 17.9359C23.1016 17.9411 23.093 17.9463 23.0843 17.9514C23.0757 17.9564 23.0669 17.9612 23.0583 17.9661C23.0496 17.971 23.041 17.976 23.0323 17.9808C23.0237 17.9856 23.015 17.9902 23.0063 17.9949C22.9976 17.9995 22.989 18.0042 22.9803 18.0088C22.9716 18.0133 22.963 18.0177 22.9543 18.0222L22.9283 18.0354L22.9022 18.0481L22.8763 18.0606C22.8676 18.0646 22.859 18.0688 22.8503 18.0728C22.8416 18.0767 22.8329 18.0806 22.8242 18.0845C22.8156 18.0884 22.807 18.0923 22.7982 18.0961C22.7896 18.0999 22.7809 18.1035 22.7722 18.1072C22.7636 18.1108 22.7549 18.1146 22.7462 18.1182C22.7376 18.1217 22.7289 18.1252 22.7202 18.1286L22.6942 18.1389L22.6682 18.1489L22.6422 18.1586C22.6335 18.1618 22.6249 18.165 22.6162 18.1681C22.6076 18.1712 22.5989 18.1741 22.5902 18.1771C22.5815 18.18 22.5729 18.1831 22.5642 18.186C22.5555 18.1889 22.5469 18.1917 22.5382 18.1945L22.5122 18.2028L22.4862 18.2109C22.4775 18.2135 22.4688 18.216 22.4602 18.2185C22.4515 18.2211 22.4429 18.2237 22.4342 18.2262C22.4255 18.2286 22.4168 18.2309 22.4082 18.2332L22.3821 18.2402L22.3562 18.2469C22.3475 18.2491 22.3388 18.2512 22.3301 18.2533C22.3215 18.2554 22.3129 18.2577 22.3041 18.2597C22.2955 18.2617 22.2868 18.2635 22.2781 18.2654C22.2695 18.2674 22.2608 18.2693 22.2521 18.2712L22.2261 18.2766L22.2001 18.2818C22.1914 18.2834 22.1828 18.2853 22.1741 18.2869C22.1655 18.2885 22.1568 18.2899 22.1481 18.2914L22.1221 18.2959L22.0961 18.3002C22.0875 18.3015 22.0788 18.3028 22.0701 18.3041C22.0614 18.3054 22.0528 18.3068 22.0441 18.308C22.0354 18.3092 22.0267 18.3102 22.0181 18.3114L21.9921 18.3147C21.9834 18.3157 21.9747 18.3168 21.9661 18.3178C21.9574 18.3188 21.9487 18.3196 21.9401 18.3205C21.9314 18.3214 21.9228 18.3224 21.9141 18.3232C21.9054 18.324 21.8967 18.3247 21.8881 18.3255L21.862 18.3276C21.8534 18.3282 21.8447 18.329 21.836 18.3296C21.8274 18.3302 21.8187 18.3306 21.81 18.3311L21.784 18.3326L21.758 18.3339C21.7494 18.3342 21.7407 18.3344 21.732 18.3347C21.7233 18.335 21.7147 18.3354 21.706 18.3356C21.6974 18.3359 21.6887 18.3359 21.68 18.3361L21.654 18.3364C21.6459 18.3365 21.6378 18.3367 21.6297 18.3367H21.628H21.602H21.576H21.55H21.524H21.498H21.472H21.446H21.4199H21.394H21.3679H21.3419H21.3159H21.2899H21.2639H21.2379H21.2119H21.1859H21.1599H21.1339H21.1079H21.0819H21.0559H21.0299H21.0039H20.9779H20.9519H20.9258H20.8998H20.8738H20.8478H20.8218H20.7958H20.7698H20.7438H20.7178H20.6918H20.6658H20.6398H20.6138H20.5878H20.5618H20.5358H20.5098H20.4838H20.4578H20.4318H20.4058H20.3797H20.3537H20.3277H20.3017H20.2757H20.2497H20.2237H20.1977H20.1717H20.1457H20.1197H20.0937H20.0677H20.0417H20.0157H19.9897H19.9637H19.9377H19.9117H19.8856H19.8596H19.8336H19.8076H19.7816H19.7556H19.7296H19.7036H19.6776H19.6516H19.6256H19.5996H19.5736H19.5476H19.5216H19.4956H19.4696H19.4435H19.4175H19.3915H19.3655H19.3395H19.3135H19.2875H19.2615H19.2355H19.2095H19.1835H19.1575H19.1315H19.1055H19.0795H19.0535H19.0275H19.0015H18.9755H18.9495H18.9234H18.8974H18.8714H18.8454H18.8194H18.7934H18.7674H18.7414H18.7154H18.6894H18.6634H18.6374H18.6114H18.5854H18.5594H18.5334H18.5074H18.4813H18.4554H18.4293H18.4033H18.3774H18.3513H18.3254H18.2993H18.2733H18.2473H18.2213H18.1953H18.1693H18.1433H18.1173H18.0913H18.0653H18.0393H18.0133H17.9873H17.9613H17.9353H17.9093H17.8833H17.8573H17.8312H17.8053H17.7792H17.7532H17.7272H17.6714V12.6901C17.6896 12.7043 17.7083 12.7183 17.7272 12.7322C17.7358 12.7385 17.7445 12.7447 17.7532 12.751C17.7618 12.7571 17.7705 12.7632 17.7792 12.7693C17.7879 12.7753 17.7965 12.7813 17.8053 12.7872C17.8138 12.793 17.8225 12.7988 17.8312 12.8045C17.8398 12.8102 17.8485 12.8159 17.8573 12.8215C17.8659 12.827 17.8745 12.8325 17.8833 12.838L17.9093 12.8542C17.9178 12.8594 17.9265 12.8647 17.9353 12.8699L17.9613 12.8853C17.9699 12.8903 17.9785 12.8953 17.9873 12.9003C17.9959 12.9052 18.0046 12.9101 18.0133 12.9149L18.0393 12.9293C18.0479 12.9339 18.0566 12.9386 18.0653 12.9433C18.0739 12.9479 18.0826 12.9524 18.0913 12.9569L18.1173 12.9703L18.1433 12.9833L18.1693 12.9961C18.178 13.0003 18.1866 13.0045 18.1953 13.0086C18.2039 13.0127 18.2126 13.0167 18.2213 13.0208L18.2473 13.0327L18.2733 13.0445L18.2993 13.0559C18.308 13.0596 18.3166 13.0634 18.3254 13.0671L18.3513 13.078L18.3774 13.0888L18.4033 13.0992L18.4293 13.1095L18.4554 13.1196L18.4813 13.1294L18.5074 13.139L18.5334 13.1484L18.5594 13.1577L18.5854 13.1667C18.594 13.1697 18.6026 13.1727 18.6114 13.1756L18.6374 13.1842C18.646 13.1871 18.6547 13.19 18.6634 13.1928C18.672 13.1956 18.6807 13.1983 18.6894 13.201L18.7154 13.2092L18.7414 13.2171C18.7501 13.2197 18.7587 13.2224 18.7674 13.225C18.776 13.2275 18.7847 13.23 18.7934 13.2325L18.8194 13.2401L18.8454 13.2473L18.8714 13.2545L18.8974 13.2615L18.9234 13.2684L18.9495 13.2751L18.9755 13.2817L19.0015 13.2881L19.0275 13.2944L19.0535 13.3005L19.0795 13.3065L19.1055 13.3125L19.1315 13.3182L19.1575 13.3239L19.1835 13.3293L19.2095 13.3347L19.2355 13.34L19.2615 13.3451L19.2875 13.3502L19.3135 13.355L19.3395 13.3599L19.3655 13.3645L19.3915 13.3691L19.4175 13.3736L19.4435 13.3779L19.4696 13.3822L19.4956 13.3863L19.5216 13.3904L19.5476 13.3943L19.5736 13.3981L19.5996 13.4019L19.6256 13.4055L19.6516 13.4091L19.6776 13.4126L19.7036 13.4159L19.7296 13.4192L19.7556 13.4223L19.7816 13.4255L19.8076 13.4285L19.8336 13.4313L19.8596 13.4342L19.8856 13.4369L19.9117 13.4396L19.9377 13.4422L19.9637 13.4446L19.9897 13.4471L20.0157 13.4494L20.0417 13.4516L20.0677 13.4538L20.0937 13.4559L20.1197 13.4579L20.1457 13.4599L20.1717 13.4617L20.1977 13.4635L20.2237 13.4653L20.2497 13.4669L20.2757 13.4685L20.3017 13.47L20.3277 13.4714L20.3537 13.4728L20.3797 13.4741L20.4058 13.4753L20.4318 13.4765L20.4578 13.4776L20.4838 13.4786L20.5098 13.4796L20.5358 13.4805L20.5618 13.4813L20.5878 13.4821L20.6138 13.4828L20.6398 13.4834L20.6658 13.484L20.6918 13.4846L20.7178 13.485L20.7438 13.4854L20.7698 13.4858L20.7958 13.486L20.8218 13.4862L20.8478 13.4865L20.8738 13.4866L20.8998 13.4866L20.9258 13.4866L20.9519 13.4866L20.9779 13.4864L21.0039 13.4863L21.0299 13.4861L21.0559 13.4858L21.0819 13.4855L21.1079 13.4852L21.1339 13.4847L21.1599 13.4842L21.1859 13.4837L21.2119 13.4831L21.2379 13.4825L21.2639 13.4818L21.2899 13.4811L21.3159 13.4803L21.3419 13.4795L21.3679 13.4787L21.394 13.4777L21.4199 13.4767L21.446 13.4757L21.4587 13.4752L21.472 13.4746L21.498 13.4735L21.524 13.4723L21.55 13.471L21.576 13.4695L21.602 13.4681L21.628 13.4665L21.654 13.4649L21.68 13.4632L21.706 13.4614L21.732 13.4595L21.758 13.4576L21.784 13.4556L21.81 13.4535L21.836 13.4514L21.862 13.4491L21.8881 13.4469L21.9141 13.4445L21.9401 13.4422L21.9661 13.4397L21.9921 13.4371L22.0181 13.4345L22.0441 13.4319L22.0701 13.4292L22.0961 13.4264L22.1221 13.4235L22.1481 13.4206L22.1741 13.4177L22.2001 13.4147L22.2261 13.4116L22.2521 13.4085L22.2781 13.4053L22.3041 13.4021L22.3301 13.3988L22.3562 13.3955L22.3821 13.3921L22.4082 13.3887L22.4342 13.3851L22.4602 13.3816L22.4862 13.378L22.5122 13.3744L22.5382 13.3707L22.5642 13.3669L22.5902 13.3631L22.6162 13.3593L22.6422 13.3554L22.6682 13.3514L22.6942 13.3475L22.7202 13.3434L22.7462 13.3393L22.7722 13.3352L22.7982 13.331L22.8242 13.3268L22.8503 13.3225L22.8763 13.3182L22.9022 13.3139L22.9283 13.3094L22.9543 13.305L22.9803 13.3005L23.0063 13.2959L23.0323 13.2913L23.0583 13.2867L23.0843 13.282L23.1103 13.2773L23.1363 13.2725L23.1623 13.2677L23.1883 13.2628L23.2143 13.2579L23.2403 13.2529L23.2663 13.2479L23.2923 13.2428L23.3183 13.2377L23.3443 13.2326L23.3703 13.2273L23.3964 13.2221L23.4224 13.2167L23.4484 13.2113L23.4744 13.2059L23.5004 13.2003L23.5264 13.1947L23.5524 13.1891L23.5783 13.1833V12.1488L23.5524 12.1604L23.5264 12.1721L23.5004 12.1836L23.4744 12.195L23.4484 12.2064L23.4224 12.2176L23.3964 12.2286L23.3703 12.2396L23.3443 12.2505L23.3183 12.2613L23.2923 12.2719L23.2663 12.2824L23.2403 12.2928L23.2143 12.303L23.1883 12.3132L23.1623 12.3232L23.1363 12.3331L23.1103 12.3429L23.0843 12.3525L23.0583 12.362L23.0323 12.3714L23.0063 12.3807L22.9803 12.3898L22.9543 12.3988L22.9283 12.4076L22.9022 12.4163L22.8763 12.4249L22.8503 12.4334L22.8242 12.4417L22.7982 12.4499L22.7722 12.458L22.7462 12.4659L22.7202 12.4737L22.6942 12.4814L22.6682 12.4889L22.6422 12.4963L22.6162 12.5035L22.5902 12.5106L22.5642 12.5176L22.5382 12.5245L22.5122 12.5312L22.4862 12.5378L22.4602 12.5442L22.4342 12.5506L22.4082 12.5567L22.3821 12.5628L22.3562 12.5687L22.3301 12.5745L22.3041 12.5801L22.2781 12.5856L22.2521 12.591L22.2261 12.5963L22.2001 12.6014L22.1741 12.6064L22.1481 12.6112L22.1221 12.616L22.0961 12.6206L22.0701 12.625L22.0441 12.6293L22.0181 12.6335L21.9921 12.6376L21.9661 12.6415L21.9401 12.6454L21.9141 12.6491L21.8881 12.6526L21.862 12.656L21.836 12.6594L21.81 12.6625L21.784 12.6656L21.758 12.6685L21.732 12.6713L21.706 12.674L21.68 12.6765L21.654 12.679L21.628 12.6812L21.602 12.6834L21.576 12.6855L21.55 12.6874L21.5342 12.6886L21.524 12.6892L21.498 12.6908L21.472 12.6923L21.446 12.6936L21.4199 12.6948L21.394 12.6959L21.3679 12.6967L21.3419 12.6974L21.3159 12.6979L21.2899 12.6983L21.2639 12.6986C21.2552 12.6986 21.2466 12.6985 21.2379 12.6985L21.2119 12.6984L21.1859 12.6981L21.1599 12.6976L21.1339 12.6969C21.1252 12.6967 21.1166 12.6963 21.1079 12.696C21.0992 12.6957 21.0905 12.6954 21.0819 12.695L21.0559 12.6937L21.0299 12.6923L21.0039 12.6907L20.9779 12.6888C20.9692 12.6882 20.9605 12.6876 20.9519 12.6869C20.9431 12.6862 20.9345 12.6853 20.9258 12.6845L20.8998 12.6822L20.8738 12.6794L20.8478 12.6766L20.8218 12.6735L20.7958 12.6701C20.7871 12.669 20.7784 12.6678 20.7698 12.6666C20.7611 12.6654 20.7525 12.664 20.7438 12.6627C20.7352 12.6614 20.7264 12.6602 20.7178 12.6588C20.7091 12.6574 20.7005 12.6558 20.6918 12.6544C20.6831 12.6529 20.6744 12.6515 20.6658 12.65C20.6571 12.6484 20.6485 12.6467 20.6398 12.645C20.6311 12.6434 20.6224 12.6418 20.6138 12.6401C20.6051 12.6384 20.5964 12.6365 20.5878 12.6347L20.5618 12.6291C20.5531 12.6272 20.5444 12.6252 20.5358 12.6232C20.5271 12.6212 20.5184 12.6192 20.5098 12.6171C20.501 12.615 20.4924 12.6128 20.4838 12.6106C20.4751 12.6084 20.4664 12.6062 20.4578 12.6038C20.449 12.6015 20.4404 12.5991 20.4318 12.5967C20.4231 12.5943 20.4144 12.5919 20.4058 12.5893C20.397 12.5868 20.3884 12.5842 20.3797 12.5816C20.3711 12.5789 20.3623 12.5763 20.3537 12.5736C20.345 12.5708 20.3364 12.5679 20.3277 12.5651C20.3191 12.5622 20.3103 12.5594 20.3017 12.5564C20.293 12.5534 20.2844 12.5503 20.2757 12.5471C20.267 12.544 20.2583 12.541 20.2497 12.5378C20.241 12.5345 20.2324 12.5311 20.2237 12.5277C20.215 12.5243 20.2063 12.521 20.1977 12.5175C20.1889 12.514 20.1803 12.5103 20.1717 12.5067C20.163 12.503 20.1543 12.4993 20.1457 12.4955C20.137 12.4917 20.1283 12.4878 20.1197 12.4839C20.111 12.4799 20.1023 12.4758 20.0937 12.4717C20.085 12.4676 20.0762 12.4635 20.0677 12.4593C20.0589 12.455 20.0503 12.4505 20.0417 12.4461C20.033 12.4416 20.0243 12.4371 20.0157 12.4325C20.0069 12.4278 19.9983 12.4231 19.9897 12.4183C19.9809 12.4134 19.9723 12.4085 19.9637 12.4035C19.955 12.3985 19.9462 12.3935 19.9377 12.3883C19.9289 12.383 19.9203 12.3776 19.9117 12.3722C19.9029 12.3667 19.8942 12.3611 19.8856 12.3555C19.8769 12.3498 19.8682 12.3441 19.8596 12.3383C19.8509 12.3323 19.8422 12.3262 19.8336 12.3201C19.8249 12.3138 19.8162 12.3076 19.8076 12.3012C19.7989 12.2948 19.7902 12.2883 19.7816 12.2817C19.7728 12.2749 19.7642 12.2679 19.7556 12.261C19.7468 12.2539 19.7382 12.2467 19.7296 12.2394C19.7209 12.232 19.7122 12.2245 19.7036 12.2169C19.6949 12.2092 19.6861 12.2014 19.6776 12.1935C19.6688 12.1853 19.6602 12.177 19.6516 12.1686C19.6428 12.16 19.6341 12.1513 19.6256 12.1425C19.6168 12.1335 19.6081 12.1243 19.5996 12.1151C19.5908 12.1056 19.5821 12.096 19.5736 12.0863C19.5648 12.0762 19.5561 12.066 19.5476 12.0558C19.5388 12.0451 19.5301 12.0344 19.5216 12.0235C19.5127 12.0121 19.504 12.0007 19.4956 11.9891C19.4867 11.977 19.478 11.9647 19.4696 11.9524C19.4607 11.9394 19.452 11.9262 19.4435 11.9129C19.4346 11.8989 19.426 11.8847 19.4175 11.8704C19.4086 11.8552 19.4 11.8398 19.3915 11.8242C19.3826 11.8076 19.3739 11.7908 19.3655 11.7738C19.3566 11.7555 19.3478 11.737 19.3395 11.7182C19.3304 11.6975 19.3218 11.6763 19.3135 11.6549C19.3043 11.6313 19.2956 11.6073 19.2875 11.5829C19.2781 11.5545 19.2694 11.5258 19.2615 11.4965C19.2517 11.4601 19.2431 11.4229 19.2355 11.385C19.2243 11.3289 19.2156 11.2712 19.2095 11.2119C19.2025 11.1434 19.1989 11.0729 19.1989 11.0003C19.1989 10.9277 19.2025 10.8572 19.2095 10.7887C19.2156 10.7294 19.2243 10.6716 19.2355 10.6154C19.2431 10.5776 19.2517 10.5403 19.2615 10.5039C19.2694 10.4746 19.2781 10.4458 19.2875 10.4175C19.2956 10.3931 19.3043 10.3691 19.3135 10.3454C19.3218 10.324 19.3304 10.3028 19.3395 10.282C19.3478 10.2632 19.3566 10.2448 19.3655 10.2265C19.3739 10.2094 19.3826 10.1926 19.3915 10.176C19.4 10.1605 19.4086 10.145 19.4175 10.1298C19.426 10.1155 19.4346 10.1013 19.4435 10.0873C19.452 10.074 19.4607 10.0608 19.4696 10.0478C19.478 10.0354 19.4867 10.0231 19.4956 10.011C19.504 9.99944 19.5127 9.98799 19.5216 9.97665C19.5301 9.96575 19.5388 9.95501 19.5476 9.94435C19.5561 9.93406 19.5648 9.9239 19.5736 9.91383C19.5821 9.9041 19.5908 9.8945 19.5996 9.88499C19.6081 9.87573 19.6168 9.8666 19.6256 9.85756C19.6341 9.84878 19.6428 9.84003 19.6516 9.83144C19.6602 9.82309 19.6688 9.81471 19.6776 9.80654C19.6861 9.79861 19.6949 9.79085 19.7036 9.7831C19.7122 9.77553 19.7209 9.76805 19.7296 9.76064C19.7382 9.75338 19.7468 9.74614 19.7556 9.73904C19.7642 9.7321 19.7728 9.72513 19.7816 9.71832C19.7902 9.71171 19.7989 9.70525 19.8076 9.69878C19.8162 9.69242 19.8249 9.68614 19.8336 9.67992C19.8422 9.67377 19.8509 9.66765 19.8596 9.66166C19.8682 9.65583 19.8769 9.65014 19.8856 9.64445C19.8942 9.63881 19.9029 9.6333 19.9117 9.6278C19.9203 9.62238 19.9289 9.61692 19.9377 9.61164C19.9462 9.60647 19.955 9.60147 19.9637 9.59644C19.9723 9.59145 19.9809 9.5865 19.9897 9.58165C19.9983 9.57685 20.0069 9.5721 20.0157 9.56742C20.0243 9.56283 20.033 9.55837 20.0417 9.55389C20.0503 9.54945 20.0589 9.54498 20.0677 9.54066C20.0762 9.53642 20.085 9.53231 20.0937 9.52818C20.1023 9.52409 20.111 9.52004 20.1197 9.51605C20.1283 9.51212 20.137 9.50822 20.1457 9.50439C20.1543 9.50061 20.163 9.49694 20.1717 9.49326C20.1803 9.48962 20.1889 9.48594 20.1977 9.4824C20.2063 9.47892 20.215 9.47557 20.2237 9.47219C20.2324 9.4688 20.241 9.4654 20.2497 9.46213C20.2583 9.45892 20.267 9.45585 20.2757 9.45274C20.2844 9.44963 20.293 9.4465 20.3017 9.44349C20.3103 9.44053 20.3191 9.4377 20.3277 9.43482C20.3364 9.43196 20.345 9.42909 20.3537 9.42631C20.3623 9.42359 20.3711 9.42095 20.3797 9.41831C20.3884 9.41569 20.397 9.41306 20.4058 9.41052C20.4144 9.40802 20.4231 9.40559 20.4318 9.40317C20.4404 9.40076 20.449 9.39837 20.4578 9.39604L20.4838 9.38931C20.4924 9.38712 20.501 9.38489 20.5098 9.38278C20.5184 9.38069 20.5271 9.37869 20.5358 9.37668C20.5444 9.37468 20.5531 9.37265 20.5618 9.37073L20.5878 9.36519C20.5964 9.36337 20.6051 9.36151 20.6138 9.35977C20.6224 9.35805 20.6311 9.35645 20.6398 9.3548C20.6485 9.35316 20.6571 9.35144 20.6658 9.34987C20.6744 9.34833 20.6831 9.34694 20.6918 9.34547C20.7005 9.344 20.7091 9.34246 20.7178 9.34105C20.7264 9.33966 20.7352 9.33845 20.7438 9.33714C20.7525 9.33583 20.7611 9.33448 20.7698 9.33324L20.7958 9.32974L20.8218 9.32638L20.8478 9.32327L20.8738 9.32041L20.8998 9.31767L20.9258 9.3153C20.9345 9.31452 20.9431 9.31366 20.9519 9.31294C20.9605 9.31221 20.9692 9.31166 20.9779 9.31102L21.0039 9.30914L21.0299 9.30752L21.0559 9.30611L21.0819 9.3048C21.0905 9.30441 21.0992 9.30415 21.1079 9.30384C21.1166 9.30353 21.1252 9.30313 21.1339 9.30288L21.1599 9.30227L21.1859 9.30176L21.2119 9.30141L21.2379 9.30133C21.2466 9.30131 21.2552 9.30122 21.2639 9.30126L21.2899 9.30155L21.3159 9.3019L21.3419 9.30241L21.3679 9.30317L21.394 9.30394L21.4199 9.30503L21.446 9.30622L21.472 9.3075L21.498 9.30906L21.524 9.31065L21.5342 9.31127L21.55 9.31241L21.576 9.31429L21.602 9.31632L21.628 9.31847L21.654 9.32072L21.68 9.32313L21.706 9.32565L21.732 9.32827L21.758 9.33103L21.784 9.33393L21.81 9.33692L21.836 9.34005L21.862 9.34334L21.8881 9.3467L21.9141 9.3502L21.9401 9.35386L21.9661 9.35764L21.9921 9.36151L22.0181 9.36556L22.0441 9.36973L22.0701 9.37401L22.0961 9.37842L22.1221 9.38298L22.1481 9.38765L22.1741 9.39246L22.2001 9.39741L22.2261 9.4025L22.2521 9.40772L22.2781 9.41304L22.3041 9.41852L22.3301 9.42416L22.3562 9.42991L22.3821 9.43578L22.4082 9.4418L22.4342 9.44797L22.4602 9.45425L22.4862 9.46068L22.5122 9.46726L22.5382 9.47395L22.5642 9.48079L22.5902 9.48778L22.6162 9.4949L22.6422 9.50214L22.6682 9.50952L22.6942 9.51705L22.7202 9.52472L22.7462 9.53252L22.7722 9.54047L22.7982 9.54853L22.8242 9.55672L22.8503 9.5651L22.8763 9.57359L22.9022 9.5822L22.9283 9.59096L22.9543 9.59986L22.9803 9.6089L23.0063 9.61806L23.0323 9.62735L23.0583 9.63678L23.0843 9.64635L23.1103 9.65605L23.1363 9.66589L23.1623 9.67585L23.1883 9.68594L23.2143 9.69616L23.2403 9.70651L23.2663 9.71695L23.2923 9.72756L23.3183 9.73828L23.3443 9.74912L23.3703 9.76007L23.3964 9.77116L23.4224 9.78236L23.4484 9.79366L23.4744 9.80509L23.5004 9.81663L23.5264 9.82827L23.5524 9.84003L23.5783 9.85181V8.81656L23.5524 8.81077L23.5264 8.80509L23.5004 8.7995L23.4744 8.79396L23.4484 8.7885L23.4224 8.78312L23.3964 8.77778L23.3703 8.7725L23.3443 8.76729L23.3183 8.76211L23.2923 8.757L23.2663 8.75196L23.2403 8.74691L23.2143 8.74196L23.1883 8.73705L23.1623 8.73218L23.1363 8.72734L23.1103 8.72257L23.0843 8.71784L23.0583 8.71316L23.0323 8.70854L23.0063 8.70393L22.9803 8.69939L22.9543 8.69489L22.9283 8.69045L22.9022 8.68604L22.8763 8.68168L22.8503 8.67738L22.8242 8.67311L22.7982 8.66889L22.7722 8.66472L22.7462 8.66059L22.7202 8.6565L22.6942 8.65249L22.6682 8.6485L22.6422 8.64457L22.6162 8.64068L22.5902 8.63684L22.5642 8.63306L22.5382 8.62931L22.5122 8.62563L22.4862 8.62197L22.4602 8.61839L22.4342 8.61485L22.4082 8.61135L22.3821 8.60792L22.3562 8.60454L22.3301 8.60121L22.3041 8.59795L22.2781 8.59472L22.2521 8.59155L22.2261 8.58842L22.2001 8.58539L22.1741 8.58237L22.1481 8.57942L22.1221 8.57653L22.0961 8.57371L22.0701 8.57095L22.0441 8.56823L22.0181 8.56559L21.9921 8.56299L21.9661 8.56048L21.9401 8.558L21.9141 8.55563L21.8881 8.55328L21.862 8.55101L21.836 8.5488L21.81 8.54669L21.784 8.54462L21.758 8.54262L21.732 8.5407L21.706 8.53884L21.68 8.5371L21.654 8.53536L21.628 8.53378L21.602 8.53219L21.576 8.53076L21.55 8.52936L21.524 8.52806L21.498 8.52683L21.472 8.5257L21.4587 8.52513L21.446 8.52464L21.4199 8.52366L21.394 8.52268L21.3679 8.52171L21.3419 8.52088L21.3159 8.52008L21.2899 8.51926L21.2639 8.51856L21.2379 8.51789L21.2119 8.51725L21.1859 8.51664L21.1599 8.51615L21.1339 8.51568L21.1079 8.51519L21.0819 8.51488L21.0559 8.51457L21.0299 8.51425L21.0039 8.51406L20.9779 8.51394L20.9519 8.5138L20.9258 8.51374L20.8998 8.51378L20.8738 8.51382L20.8478 8.5139L20.8218 8.51412L20.7958 8.51435L20.7698 8.51459L20.7438 8.515L20.7178 8.51539L20.6918 8.5158L20.6658 8.51638L20.6398 8.51697L20.6138 8.51756L20.5878 8.51832L20.5618 8.5191L20.5358 8.51989L20.5098 8.52085L20.4838 8.52182L20.4578 8.52278L20.4318 8.52394L20.4058 8.52511L20.3797 8.52627L20.3537 8.52761L20.3277 8.52898L20.3017 8.53035L20.2757 8.53192L20.2497 8.5335L20.2237 8.53509L20.1977 8.53689L20.1717 8.53867L20.1457 8.54051L20.1197 8.5425L20.0937 8.54448L20.0677 8.54657L20.0417 8.54878L20.0157 8.55099L19.9897 8.55334L19.9637 8.55579L19.9377 8.55821L19.9117 8.56085L19.8856 8.5635L19.8596 8.5662L19.8336 8.56909L19.8076 8.57197L19.7816 8.575L19.7556 8.57811L19.7296 8.58122L19.7036 8.58455L19.6776 8.58789L19.6516 8.59133L19.6256 8.59493L19.5996 8.59851L19.5736 8.60231L19.5476 8.60616L19.5216 8.6101L19.4956 8.61417L19.4696 8.61826L19.4435 8.62256L19.4175 8.62692L19.3915 8.63138L19.3655 8.63598L19.3395 8.6406L19.3135 8.64547L19.2875 8.65034L19.2615 8.65539L19.2355 8.66053L19.2095 8.66578L19.1835 8.6712L19.1575 8.67663L19.1315 8.68235L19.1055 8.68806L19.0795 8.69399L19.0535 8.69999L19.0275 8.70618L19.0015 8.71248L18.9755 8.71889L18.9495 8.72549L18.9234 8.73218L18.8974 8.73908L18.8714 8.74603L18.8454 8.75325L18.8194 8.76051L18.7934 8.76806C18.7847 8.77058 18.776 8.77305 18.7674 8.77561L18.7414 8.78349C18.7328 8.78611 18.724 8.7887 18.7154 8.79138L18.6894 8.79959L18.6634 8.80781C18.6547 8.81063 18.646 8.81354 18.6374 8.8164C18.6287 8.81926 18.62 8.82207 18.6114 8.82499L18.5854 8.83393C18.5767 8.83692 18.568 8.83986 18.5594 8.84289L18.5334 8.8522L18.5074 8.86159L18.4813 8.87128L18.4554 8.8811L18.4293 8.89115L18.4033 8.90144L18.3774 8.91189L18.3513 8.92267L18.3254 8.93355C18.3166 8.93727 18.308 8.94106 18.2993 8.94482L18.2733 8.95622L18.2473 8.96794L18.2213 8.97992C18.2126 8.98397 18.2039 8.98798 18.1953 8.99207C18.1866 8.99621 18.178 9.00044 18.1693 9.00465L18.1433 9.0174L18.1173 9.03045C18.1086 9.03489 18.0999 9.03937 18.0913 9.04387C18.0826 9.04839 18.0739 9.05289 18.0653 9.05747C18.0566 9.06211 18.0479 9.0668 18.0393 9.0715C18.0306 9.07625 18.0219 9.08104 18.0133 9.08586C18.0046 9.09071 17.9959 9.09556 17.9873 9.10045C17.9785 9.10544 17.9699 9.11049 17.9613 9.11551L17.9353 9.13091C17.9265 9.13614 17.9178 9.14132 17.9093 9.1466L17.8833 9.16276C17.8745 9.16826 17.8659 9.1738 17.8573 9.17933C17.8485 9.18495 17.8398 9.1906 17.8312 9.19629C17.8225 9.20205 17.8138 9.20778 17.8053 9.21359C17.7965 9.21954 17.7879 9.22552 17.7792 9.23153C17.7705 9.23761 17.7618 9.24374 17.7532 9.24988C17.7445 9.2561 17.7358 9.26236 17.7272 9.26866V9.26864Z" fill="#E10238"/>
</svg>
